<svg width="40" height="40" viewBox="0 0 40 40" fill="none" xmlns="http://www.w3.org/2000/svg">
<path d="M12.0463 20.2411V14.5021L0 26.5379L2.84652 29.4402L12.0463 20.2411ZM39.4952 16.6546C38.6 12.1507 35.2301 8.78534 34.8421 8.41013L26.5605 0L21.8283 4.72833L21.4918 5.06433V10.8027L26.5368 5.76202L31.2467 10.5444L31.9651 11.2739L32.0166 11.3239C32.0254 11.3327 32.3328 11.6322 32.7655 12.1494C33.6504 13.2081 35.0595 15.1795 35.5104 17.4443C36.1821 20.8272 36.52 24.7707 32.7655 29.5754V35.5071C33.1196 35.2009 33.3417 34.9811 33.4216 34.9007C36.7807 31.6063 38.8052 28.2747 39.6096 24.7166C40.3077 21.6311 39.9434 18.9093 39.4952 16.6546ZM14.4168 34.3673L14.2895 34.3051L14.2279 34.2855C14.1385 34.2429 13.8033 34.0685 13.1824 33.6203C12.8757 33.3978 12.4979 33.1085 12.0463 32.7346C11.3631 32.1681 10.5099 31.4082 9.46922 30.3948L7.14068 28.0205L4.26775 30.889L6.58275 33.2484L6.6139 33.2802C10.1978 36.7768 12.0395 37.7753 12.7179 38.0531C15.1751 39.2308 17.4847 39.7893 19.5871 39.9495C20.7537 40.0387 21.8567 40.0049 22.8853 39.8859C22.9733 39.8758 23.0613 39.865 23.1486 39.8535V35.741C20.6901 36.1629 17.7231 35.9675 14.4168 34.3673Z" fill="white"/>
<path d="M19.4606 7.09375V31.592H14.0776V12.4724L14.6186 11.9316L14.9084 11.6429L16.5348 10.0177L17.6371 8.91572L17.996 8.55741L19.099 7.45476L19.4606 7.09375Z" fill="white"/>
<path d="M30.7342 12.5726V37.0215C30.7105 37.0371 30.6868 37.0526 30.6624 37.0682C30.4153 37.227 30.1519 37.3879 29.8743 37.5475C29.7828 37.6002 29.6901 37.6529 29.5946 37.7057C29.3448 37.8443 29.0841 37.9815 28.8126 38.116C28.562 38.2404 28.302 38.3628 28.0332 38.4811C27.887 38.5453 27.7387 38.6082 27.587 38.6711C27.392 38.7509 27.1902 38.8293 26.9824 38.9057C26.8205 38.9658 26.6553 39.0233 26.4861 39.0801C26.1529 39.193 25.8056 39.2985 25.4433 39.3965C25.3567 39.4202 25.2686 39.4425 25.1799 39.4648V12.5726H30.7342Z" fill="white"/>
<path d="M25.1799 19.0276H19.4604V24.5739H25.1799V19.0276Z" fill="white"/>
</svg>
