<svg xmlns="http://www.w3.org/2000/svg" viewBox="0 0 646.15 647.15"><g id="Layer_2" data-name="Layer 2"><g id="White"><path d="M194.93,327.57V234.9L.7,429.26l45.9,46.87Zm442.58-57.91c-14.43-72.73-68.77-127.08-75-133.14L429,.71l-76.3,76.36-5.43,5.42v92.67l81.35-81.4L504.52,171l11.58,11.78.83.81c.14.14,5.1,5,12.07,13.33,14.27,17.09,37,48.93,44.26,85.5C584.09,337,589.54,400.72,529,478.31V574.1c5.71-5,9.29-8.49,10.58-9.79,54.16-53.2,86.81-107,99.78-164.46C650.61,350,644.74,306.07,637.51,269.66Zm-404.36,286-2.05-1-1-.32c-1.44-.69-6.85-3.5-16.86-10.74-4.94-3.59-11-8.27-18.32-14.3-11-9.15-24.77-21.42-41.55-37.79L115.84,453.2,69.52,499.52l37.32,38.1.5.52c57.79,56.46,87.48,72.59,98.42,77.07,39.62,19,76.86,28,110.76,30.63a277.56,277.56,0,0,0,53.18-1c1.42-.16,2.84-.34,4.24-.52V577.88C334.3,584.69,286.46,581.53,233.15,555.69Z" fill="#fff"/><path d="M194.93,327.57V234.9L.7,429.26l45.9,46.87Zm442.58-57.91c-14.43-72.73-68.77-127.08-75-133.14L429,.71l-76.3,76.36-5.43,5.42v92.67l81.35-81.4L504.52,171l11.58,11.78.83.81c.14.14,5.1,5,12.07,13.33,14.27,17.09,37,48.93,44.26,85.5C584.09,337,589.54,400.72,529,478.31V574.1c5.71-5,9.29-8.49,10.58-9.79,54.16-53.2,86.81-107,99.78-164.46C650.61,350,644.74,306.07,637.51,269.66Zm-404.36,286-2.05-1-1-.32c-1.44-.69-6.85-3.5-16.86-10.74-4.94-3.59-11-8.27-18.32-14.3-11-9.15-24.77-21.42-41.55-37.79L115.84,453.2,69.52,499.52l37.32,38.1.5.52c57.79,56.46,87.48,72.59,98.42,77.07,39.62,19,76.86,28,110.76,30.63a277.56,277.56,0,0,0,53.18-1c1.42-.16,2.84-.34,4.24-.52V577.88C334.3,584.69,286.46,581.53,233.15,555.69Z" fill="none" stroke="#fff" stroke-miterlimit="10"/><polygon points="314.48 115.27 314.48 510.88 227.69 510.88 227.69 202.12 236.41 193.39 241.08 188.73 267.3 162.48 285.08 144.69 290.86 138.9 308.65 121.1 314.48 115.27" fill="#fff" stroke="#fff" stroke-miterlimit="10"/><path d="M496.25,203.74V598.55c-.38.25-.76.51-1.16.76-4,2.56-8.23,5.16-12.7,7.74-1.48.85-3,1.7-4.51,2.55q-6,3.36-12.61,6.63-6.06,3-12.57,5.89c-2.36,1-4.75,2.06-7.19,3.07q-4.72,1.93-9.75,3.79c-2.61,1-5.27,1.9-8,2.82q-8.07,2.73-16.82,5.11c-1.39.38-2.81.74-4.24,1.1V203.74Z" fill="#fff" stroke="#fff" stroke-miterlimit="10"/><rect x="314.48" y="307.98" width="92.22" height="89.57" fill="#fff" stroke="#fff" stroke-miterlimit="10"/></g></g></svg>