<svg xmlns="http://www.w3.org/2000/svg" viewBox="0 0 644.95 645.94"><g id="Layer_2" data-name="Layer 2"><g id="White"><path d="M194.23,326.86V234.19L0,428.55l45.9,46.87ZM636.81,269c-14.44-72.73-68.77-127.08-75-133.14L428.25,0,352,76.36l-5.42,5.42v92.67l81.34-81.4,75.94,77.23,11.59,11.78.83.81c.14.14,5.09,5,12.07,13.33,14.27,17.09,37,48.93,44.26,85.5C583.39,336.33,588.84,400,528.3,477.6v95.79c5.71-4.95,9.29-8.49,10.58-9.79,54.16-53.2,86.8-107,99.77-164.46C649.91,349.31,644,305.36,636.81,269ZM232.45,555l-2-1-1-.32c-1.45-.69-6.85-3.5-16.86-10.74-5-3.59-11-8.27-18.32-14.3-11-9.15-24.77-21.42-41.55-37.79l-37.55-38.34L68.81,498.81l37.33,38.1.5.52c57.79,56.46,87.48,72.59,98.42,77.07,39.62,19,76.86,28,110.76,30.63a277.44,277.44,0,0,0,53.17-1c1.42-.16,2.84-.34,4.25-.52V577.17C333.6,584,285.76,580.82,232.45,555Z" fill="#fff"/><polygon points="313.77 114.56 313.77 510.17 226.98 510.17 226.98 201.41 235.71 192.68 240.38 188.02 266.6 161.77 284.37 143.98 290.16 138.19 307.94 120.39 313.77 114.56" fill="#fff" stroke="#fff" stroke-miterlimit="10" stroke-width="0.5"/><path d="M495.55,203V597.84l-1.16.76c-4,2.56-8.23,5.16-12.71,7.74q-2.21,1.27-4.51,2.55-6,3.36-12.61,6.63c-4,2-8.23,4-12.56,5.89-2.36,1-4.75,2.06-7.2,3.07q-4.71,1.93-9.74,3.79c-2.61,1-5.28,1.9-8,2.82q-8.06,2.73-16.81,5.11c-1.4.38-2.82.74-4.25,1.1V203Z" fill="#fff" stroke="#fff" stroke-miterlimit="10" stroke-width="0.5"/><rect x="313.77" y="307.27" width="92.22" height="89.57" fill="#fff" stroke="#fff" stroke-miterlimit="10" stroke-width="0.5"/></g></g></svg>