<svg xmlns="http://www.w3.org/2000/svg" xmlns:xlink="http://www.w3.org/1999/xlink" viewBox="0 0 95.86 97.13"><defs><clipPath id="clip-path"><path d="M31.41,6.05h0A59.45,59.45,0,0,1,64.1,6l.1,0A27.67,27.67,0,0,1,83.5,26C85.74,35,88,64,88,72.64c0,0,1.12,17.82-40.16,17.82s-40-17.82-40-17.82,0-12.43.32-17.82a169.1,169.1,0,0,1,4-28.77,27.66,27.66,0,0,1,19.26-20Z" fill="none"/></clipPath></defs><g id="Layer_2" data-name="Layer 2"><g id="Cow"><path d="M92.25,55.07s6.55,10,1.48,14.86-10-6.11-10-6.11l-3.6-6.22,6.17-11A89.65,89.65,0,0,1,92.25,55.07Z" fill="#efefef"/><path d="M68.71,81.39H82.19a0,0,0,0,1,0,0v2.34a6.74,6.74,0,0,1-6.74,6.74h0a6.74,6.74,0,0,1-6.74-6.74V81.39a0,0,0,0,1,0,0Z" fill="#efefef"/><path d="M18,81.39H31.53a0,0,0,0,1,0,0v2.3a6.78,6.78,0,0,1-6.78,6.78h0A6.78,6.78,0,0,1,18,83.69v-2.3A0,0,0,0,1,18,81.39Z"/><path d="M70.45,15.79c3.72-2.65,10.93-7.06,15.87-7.06a4.48,4.48,0,0,1,3.74,1.55,3.42,3.42,0,0,1,.8,3.16c-1,4.12-8.8,9-14.37,11.65Z" fill="#ffcaca"/><path d="M86.32,10.73h0c1.54,0,2,.54,2.18.81A1.41,1.41,0,0,1,88.92,13c-.46,1.86-4.46,5.93-11.71,9.57l-4-6.2c4.06-2.69,9.57-5.6,13.14-5.6m0-4c-7.67,0-18.57,8.58-18.57,8.58l8,12.3S98.7,17.82,91.62,9a6.44,6.44,0,0,0-5.3-2.3Z"/><path d="M74,11a29.56,29.56,0,0,0,4.08-8.43A2,2,0,0,0,75.14.29a39.48,39.48,0,0,0-8.51,6.53C62.15,11.68,74,11,74,11Z" fill="#ffc145"/><path d="M31.41,6.05h0A59.45,59.45,0,0,1,64.1,6l.1,0A27.67,27.67,0,0,1,83.5,26C85.74,35,88,64,88,72.64c0,0,1.12,17.82-40.16,17.82s-40-17.82-40-17.82,0-12.43.32-17.82a169.1,169.1,0,0,1,4-28.77,27.66,27.66,0,0,1,19.26-20Z" fill="#fff"/><g clip-path="url(#clip-path)"><path d="M8.12,54.82S30,52.21,34.55,68.46,56,72.91,61.33,89.33s-49.64,1.81-49.64,1.81L1.49,61.32Z"/><path d="M52.36,3.91s-.22,15.27,13.25,15.27,9.75,18.9,26.28,18.9-24-36.73-24-36.73Z"/><path d="M46.83,63.61h14a10.8,10.8,0,0,1,10.8,10.8v8.17a10.8,10.8,0,0,1-10.8,10.8H36a0,0,0,0,1,0,0v-19A10.8,10.8,0,0,1,46.83,63.61Z" fill="#ffcaca"/></g><circle cx="71.68" cy="32.54" r="4.44"/><circle cx="36.03" cy="32.54" r="4.44"/><path d="M68.71,44.17c0-5.37-4.64-11.63-14.87-11.63S39.13,38.8,39.13,44.17,43.6,52,53.84,52,68.71,49.54,68.71,44.17Z" fill="#ffcaca"/><ellipse cx="50.89" cy="41.76" rx="1.53" ry="2.07"/><ellipse cx="59.8" cy="41.76" rx="1.53" ry="2.07"/><path d="M22.9,12.51a36.66,36.66,0,0,1-5.24-9.9A2,2,0,0,1,20.59.29c2.64,1.57,4.79,2.61,7.22,5.24C32.28,10.39,22.9,12.51,22.9,12.51Z" fill="#ffc145"/><path d="M17.09,21.22a4.42,4.42,0,0,1-2.58-.82c-5.87-4.08-9.38-8-9.65-10.87A3.43,3.43,0,0,1,6,6.68,4.17,4.17,0,0,1,9.15,5.46c3,0,7.29,2,12.2,5.68a4.53,4.53,0,0,1,.82,6.44l-1.54,1.93a4.51,4.51,0,0,1-3.54,1.71Z" fill="#ffcaca"/><path d="M9.15,7.46c2.49,0,6.5,1.93,11,5.28a2.52,2.52,0,0,1,.46,3.59l-1.54,1.93a2.51,2.51,0,0,1-3.42.5C9.41,14.41,7,11.05,6.85,9.35c0-.25-.06-.63.57-1.27a2.15,2.15,0,0,1,1.73-.62m0-4A6.16,6.16,0,0,0,4.56,5.28C-.76,10.72,7.44,17.92,13.37,22a6.5,6.5,0,0,0,8.83-1.28l1.53-1.93a6.51,6.51,0,0,0-1.19-9.29C18.72,6.68,13.45,3.46,9.15,3.46Z" fill="#fff"/><path d="M3.11,55.3s-6.25,10.14-1,14.9,9.81-6.41,9.81-6.41l5.17-9.16-8.26-8A89.32,89.32,0,0,0,3.11,55.3Z" fill="#fff"/><line x1="53.81" y1="77.1" x2="58.27" y2="81.55" fill="none" stroke="#ff8d8d" stroke-linecap="round" stroke-miterlimit="10"/><line x1="58.27" y1="77.1" x2="53.81" y2="81.55" fill="none" stroke="#ff8d8d" stroke-linecap="round" stroke-miterlimit="10"/><rect x="23.62" y="36.98" width="11.01" height="8.91" rx="4.46" fill="#ffd2d2"/><rect x="72.99" y="36.98" width="11.01" height="8.91" rx="4.46" fill="#ffd2d2"/></g></g></svg>