<svg xmlns="http://www.w3.org/2000/svg" viewBox="0 0 1440 900"><g id="Layer_2" data-name="Layer 2"><g id="Code_2" data-name="Code 2"><g id="Code_2-2" data-name="Code 2"><rect x="958.94" y="668.32" width="97.96" height="64.09" rx="10" fill="#003a5e" opacity="0.6"/><rect x="967.79" y="686.14" width="80.2" height="4.08" rx="2.04" fill="#003a5e" opacity="0.4"/><rect x="967.79" y="712.87" width="17.76" height="4.08" rx="2.04" fill="#003a5e" opacity="0.4"/><rect x="1012.38" y="712.87" width="35.58" height="4.08" rx="2.04" fill="#fff" opacity="0.2"/><rect x="994.53" y="712.87" width="9.03" height="4.08" rx="2.04" fill="#f95a5a"/><rect x="976.58" y="721.78" width="8.97" height="4.08" rx="2.04" fill="#afd157"/><rect x="1003.65" y="695.05" width="35.43" height="4.08" rx="2.04" fill="#fff" opacity="0.2"/><rect x="994.68" y="703.96" width="53.32" height="4.08" rx="2.04" fill="#003a5e" opacity="0.4"/><rect x="976.58" y="703.96" width="8.97" height="4.08" rx="2.04" fill="#ffc53d"/><rect x="994.53" y="721.78" width="53.47" height="4.08" rx="2.04" fill="#003a5e" opacity="0.4"/><rect x="976.73" y="695.05" width="17.94" height="4.08" rx="2.04" fill="#9a63ff"/><circle cx="970.22" cy="677.23" r="2.43" fill="#f95a5a"/><circle cx="979.13" cy="677.23" r="2.43" fill="#ffc53d"/><circle cx="988.04" cy="677.23" r="2.43" fill="#1ec3b2"/></g><rect width="1440" height="900" fill="none"/></g></g></svg>