<svg xmlns="http://www.w3.org/2000/svg" xmlns:xlink="http://www.w3.org/1999/xlink" viewBox="0 0 1440 900"><defs><clipPath id="clip-path"><path d="M239.64,387.86h0a59.45,59.45,0,0,1,32.69,0l.1,0a27.67,27.67,0,0,1,19.3,19.92c2.24,9,4.5,38.07,4.5,46.69,0,0,1.12,17.82-40.16,17.82s-40-17.82-40-17.82,0-12.43.32-17.83a170,170,0,0,1,4-28.77,27.69,27.69,0,0,1,19.27-20Z" fill="none"/></clipPath></defs><g id="Layer_2" data-name="Layer 2"><g id="Cow"><path d="M300.48,436.89s6.55,9.95,1.48,14.86-10-6.12-10-6.12l-3.59-6.22,6.17-11A89.65,89.65,0,0,1,300.48,436.89Z" fill="#efefef"/><path d="M276.94,463.2h13.48a0,0,0,0,1,0,0v2.34a6.74,6.74,0,0,1-6.74,6.74h0a6.74,6.74,0,0,1-6.74-6.74V463.2A0,0,0,0,1,276.94,463.2Z" fill="#efefef"/><path d="M226.21,463.2h13.55a0,0,0,0,1,0,0v2.3a6.78,6.78,0,0,1-6.78,6.78h0a6.78,6.78,0,0,1-6.78-6.78v-2.3A0,0,0,0,1,226.21,463.2Z"/><path d="M278.68,397.6c3.72-2.65,10.93-7.06,15.87-7.06a4.48,4.48,0,0,1,3.74,1.55,3.44,3.44,0,0,1,.8,3.17c-1,4.12-8.8,9-14.37,11.64Z" fill="#ffcaca"/><path d="M294.55,392.54h0c1.54,0,2,.55,2.18.81a1.42,1.42,0,0,1,.42,1.42c-.46,1.86-4.46,5.94-11.71,9.57l-4-6.2c4.06-2.69,9.57-5.59,13.14-5.6m0-4c-7.67,0-18.57,8.58-18.57,8.58l8,12.31s23-9.8,15.88-18.59a6.44,6.44,0,0,0-5.3-2.3Z"/><path d="M282.21,392.85a29.56,29.56,0,0,0,4.08-8.43,2,2,0,0,0-2.92-2.32,39.77,39.77,0,0,0-8.52,6.53C270.38,393.49,282.21,392.85,282.21,392.85Z" fill="#ffc145"/><path d="M239.64,387.86h0a59.45,59.45,0,0,1,32.69,0l.1,0a27.67,27.67,0,0,1,19.3,19.92c2.24,9,4.5,38.07,4.5,46.69,0,0,1.12,17.82-40.16,17.82s-40-17.82-40-17.82,0-12.43.32-17.83a170,170,0,0,1,4-28.77,27.69,27.69,0,0,1,19.27-20Z" fill="#fff"/><g clip-path="url(#clip-path)"><path d="M216.35,436.63s21.91-2.6,26.43,13.64,21.42,4.45,26.78,20.87S219.92,473,219.92,473l-10.21-29.82Z"/><path d="M260.59,385.72S260.37,401,273.84,401s9.75,18.9,26.28,18.9-24-36.72-24-36.72Z"/><path d="M255.06,445.42h14a10.8,10.8,0,0,1,10.8,10.8v8.17a10.8,10.8,0,0,1-10.8,10.8H244.26a0,0,0,0,1,0,0v-19A10.8,10.8,0,0,1,255.06,445.42Z" fill="#ffcaca"/></g><circle cx="279.91" cy="414.36" r="4.44"/><circle cx="244.25" cy="414.36" r="4.44"/><path d="M276.94,426c0-5.36-4.64-11.62-14.87-11.62s-14.71,6.26-14.71,11.62,4.47,7.81,14.71,7.81S276.94,431.35,276.94,426Z" fill="#ffcaca"/><ellipse cx="259.12" cy="423.57" rx="1.53" ry="2.07"/><ellipse cx="268.03" cy="423.57" rx="1.53" ry="2.07"/><path d="M231.13,394.33a36.81,36.81,0,0,1-5.24-9.91,2,2,0,0,1,2.93-2.32c2.64,1.57,4.79,2.61,7.22,5.25C240.51,392.2,231.13,394.33,231.13,394.33Z" fill="#ffc145"/><path d="M225.32,403a4.48,4.48,0,0,1-2.58-.81c-5.87-4.09-9.39-8.05-9.65-10.87a3.44,3.44,0,0,1,1.13-2.86,4.16,4.16,0,0,1,3.15-1.21c3,0,7.3,2,12.21,5.67a4.52,4.52,0,0,1,1.77,3,4.47,4.47,0,0,1-.95,3.4l-1.54,1.93a4.48,4.48,0,0,1-3.54,1.71Z" fill="#ffcaca"/><path d="M217.37,389.28c2.5,0,6.51,1.92,11,5.28a2.51,2.51,0,0,1,.46,3.59l-1.54,1.93a2.53,2.53,0,0,1-3.42.5c-6.24-4.35-8.64-7.72-8.8-9.42,0-.25-.06-.63.57-1.27a2.16,2.16,0,0,1,1.72-.61m0-4a6.15,6.15,0,0,0-4.58,1.81c-5.32,5.44,2.88,12.64,8.8,16.77a6.53,6.53,0,0,0,8.84-1.29l1.53-1.93a6.52,6.52,0,0,0-1.19-9.29c-3.82-2.85-9.09-6.07-13.4-6.07Z" fill="#fff"/><path d="M211.34,437.11s-6.25,10.15-1,14.9,9.81-6.41,9.81-6.41l5.17-9.15-8.26-8A90.08,90.08,0,0,0,211.34,437.11Z" fill="#fff"/><line x1="262.04" y1="458.91" x2="266.5" y2="463.37" fill="none" stroke="#ff8d8d" stroke-linecap="round" stroke-miterlimit="10"/><line x1="266.5" y1="458.91" x2="262.04" y2="463.37" fill="none" stroke="#ff8d8d" stroke-linecap="round" stroke-miterlimit="10"/><rect x="231.85" y="418.8" width="11.01" height="8.91" rx="4.46" fill="#ffd2d2"/><rect x="281.22" y="418.8" width="11.01" height="8.91" rx="4.46" fill="#ffd2d2"/><rect width="1440" height="900" fill="none"/></g></g></svg>