<svg xmlns="http://www.w3.org/2000/svg" viewBox="0 0 1486.98 900.5"><g id="Layer_2" data-name="Layer 2"><g id="Layer_2-2" data-name="Layer 2-2"><g id="Land_3" data-name="Land 3"><rect x="1377.58" y="677.23" width="62.37" height="187.13" fill="#009056"/><rect x="1377.58" y="641.59" width="62.37" height="35.64" fill="#6fb033"/><rect x="1377.58" y="632.68" width="62.37" height="8.91" fill="#4a7522"/><rect x="1377.58" y="614.86" width="62.37" height="17.82" fill="#96bf53"/><polygon points="1377.59 677.23 1377.59 864.36 1279.55 864.36 1279.55 677.23 1279.57 677.23 1377.59 677.23" fill="#00c072"/><polygon points="1377.59 641.59 1377.59 677.23 1279.57 677.23 1279.55 677.23 1279.55 641.59 1377.59 641.59" fill="#94ea44"/><polygon points="1377.59 632.68 1377.59 641.59 1279.55 641.59 1279.55 632.68 1279.57 632.68 1324.08 632.68 1377.59 632.68" fill="#6fb033"/><path d="M1377.58,614.86v17.82h-98V619.86a5,5,0,0,1,5-5Z" fill="#c8ff6f"/><polygon points="1190.4 677.23 1190.43 864.36 1074.6 864.36 1074.6 677.23 1190.39 677.23 1190.4 677.23" fill="#00c072"/><polygon points="1190.39 641.59 1190.4 677.23 1190.39 677.23 1074.6 677.23 1074.6 641.59 1190.39 641.59" fill="#94ea44"/><polygon points="1190.39 632.68 1190.39 641.59 1074.6 641.59 1074.6 632.68 1075.63 632.68 1190.39 632.68" fill="#6fb033"/><path d="M1190.39,614.86v17.82h-115.8V619.86a5,5,0,0,1,5-5Z" fill="#c8ff6f"/><polygon points="1288.52 677.23 1288.52 864.36 1190.45 864.36 1190.45 677.23 1252.83 677.23 1288.47 677.23 1288.52 677.23" fill="#00c072"/><polygon points="1288.52 641.56 1288.52 677.23 1288.47 677.23 1252.83 677.23 1190.45 677.23 1190.45 641.56 1288.52 641.56" fill="#94ea44"/><rect x="1190.45" y="632.68" width="98.07" height="8.88" fill="#6fb033"/><rect x="1190.45" y="614.86" width="98.07" height="17.82" fill="#c8ff6f"/><g id="Pixels"><rect x="1092.43" y="650.49" width="8.91" height="8.97" fill="#abf25f"/><rect x="1128.04" y="659.4" width="8.91" height="8.97" fill="#abf25f"/><rect x="1101.34" y="695.1" width="8.91" height="8.97" fill="#1ed687"/><rect x="1092.43" y="739.6" width="8.91" height="8.97" fill="#1ed687"/><rect x="1350.85" y="739.6" width="8.91" height="8.97" fill="#1ed687"/><rect x="1404.31" y="721.75" width="8.91" height="17.88" fill="#009b58"/><rect x="1422.14" y="695.05" width="8.91" height="8.91" fill="#009b58"/><rect x="1324.12" y="703.96" width="8.91" height="17.88" fill="#1ed687"/><rect x="1297.38" y="695.05" width="8.91" height="8.94" fill="#1ed687"/><rect x="1136.95" y="703.96" width="8.91" height="17.82" fill="#1ed687"/><rect x="1315.21" y="659.4" width="8.91" height="8.97" fill="#abf25f"/><rect x="1395.4" y="659.4" width="8.91" height="8.97" fill="#80bc40"/><rect x="1350.85" y="650.47" width="8.91" height="17.85" fill="#abf25f"/></g><rect width="1440" height="900" fill="none"/></g><g id="Bush_2" data-name="Bush 2"><path d="M1340.12,581.1a35.44,35.44,0,0,0-3.49,15.4,35.53,35.53,0,0,1,25.49,10.73A35.74,35.74,0,0,0,1340.12,581.1Z" fill="#009056" stroke="#009056" stroke-miterlimit="10"/><path d="M1363.21,562a35.74,35.74,0,0,0-23.09,19.08,35.74,35.74,0,0,1,22,26.13,36,36,0,0,1,5.21,6.8,35.45,35.45,0,0,0,19.43-8.95,40.07,40.07,0,0,1-13.41-21.58A40,40,0,0,1,1363.21,562Z" fill="#009056" stroke="#009056" stroke-miterlimit="10"/><path d="M1367.33,614l.17.29h35.65c.18-.31.36-.63.53-1a40,40,0,0,1-16.92-8.29A35.45,35.45,0,0,1,1367.33,614Z" fill="#009056" stroke="#009056" stroke-miterlimit="10"/><path d="M1372.27,560.86a35.66,35.66,0,0,0-9.06,1.16,40,40,0,0,0,10.14,21.48,40.29,40.29,0,0,1,1.18-22.57C1373.78,560.88,1373,560.86,1372.27,560.86Z" fill="#009056" stroke="#009056" stroke-miterlimit="10"/><path d="M1372.27,574.22a40,40,0,0,0,1.08,9.28,40.08,40.08,0,0,0,20.87,12,35.73,35.73,0,0,0,3.53-24,35.56,35.56,0,0,0-23.22-10.65A39.8,39.8,0,0,0,1372.27,574.22Z" fill="#009056" stroke="#009056" stroke-miterlimit="10"/><path d="M1394.22,595.55a40.08,40.08,0,0,1-20.87-12,40.07,40.07,0,0,0,13.41,21.58A35.67,35.67,0,0,0,1394.22,595.55Z" fill="#009056" stroke="#009056" stroke-miterlimit="10"/><path d="M1412.37,534.12a40,40,0,0,0-30.69,14.31,35.68,35.68,0,0,1,16.07,23.15,35.46,35.46,0,0,1,10.17,24.61,39.4,39.4,0,0,0,10.45-2.78,35.68,35.68,0,0,1,21.27-48.59A40,40,0,0,0,1412.37,534.12Z" fill="#009056" stroke="#009056" stroke-miterlimit="10"/><path d="M1394.22,595.55a35.67,35.67,0,0,1-7.46,9.53,40,40,0,0,0,16.92,8.29,35.41,35.41,0,0,0,4.24-16.87v-.31a39.37,39.37,0,0,1-5,.31A40.2,40.2,0,0,1,1394.22,595.55Z" fill="#009056" stroke="#009056" stroke-miterlimit="10"/><path d="M1397.75,571.58a35.73,35.73,0,0,1-3.53,24,40.2,40.2,0,0,0,8.7,1,39.37,39.37,0,0,0,5-.31A35.46,35.46,0,0,0,1397.75,571.58Z" fill="#009056" stroke="#009056" stroke-miterlimit="10"/><path d="M1403.15,614.32h9.22a40.11,40.11,0,0,1-8.69-1C1403.51,613.69,1403.33,614,1403.15,614.32Z" fill="#009056" stroke="#009056" stroke-miterlimit="10"/><path d="M1407.92,596.5a35.41,35.41,0,0,1-4.24,16.87,40.22,40.22,0,0,0,24.15-2.14,35.27,35.27,0,0,1-2.47-7.63,35.48,35.48,0,0,1-7-10.19,39.4,39.4,0,0,1-10.45,2.78Z" fill="#009056" stroke="#009056" stroke-miterlimit="10"/><path d="M1412.37,614.32h17.05a34.61,34.61,0,0,1-1.59-3.09A40,40,0,0,1,1412.37,614.32Z" fill="#009056" stroke="#009056" stroke-miterlimit="10"/><path d="M1425.31,589.67a34.92,34.92,0,0,0-.66,6.83,35.33,35.33,0,0,0,.71,7.1,35.87,35.87,0,0,0,6.85,5.47,40.15,40.15,0,0,0,18.42-46.89,35.74,35.74,0,0,0-8.77,3.81A40.11,40.11,0,0,1,1425.31,589.67Z" fill="#009056" stroke="#009056" stroke-miterlimit="10"/><path d="M1432.21,609.07a35.87,35.87,0,0,1-6.85-5.47,35.27,35.27,0,0,0,2.47,7.63A38.69,38.69,0,0,0,1432.21,609.07Z" fill="#009056" stroke="#009056" stroke-miterlimit="10"/><path d="M1427.83,611.27a34.61,34.61,0,0,0,1.59,3.09h21.42a35.5,35.5,0,0,1-18.63-5.25A38.69,38.69,0,0,1,1427.83,611.27Z" fill="#009056" stroke="#009056" stroke-miterlimit="10"/><path d="M1425.31,589.67A40.11,40.11,0,0,0,1441.86,566,35.62,35.62,0,0,0,1425.31,589.67Z" fill="#009056" stroke="#009056" stroke-miterlimit="10"/><path d="M1439.64,544.82c.79.74,1.56,1.51,2.3,2.31-.22-.94-.47-1.87-.76-2.78Z" fill="#00c072" stroke="#45d5d9" stroke-miterlimit="10"/><path d="M1452.47,574.22a40.07,40.07,0,0,1-20.26,34.85,35.66,35.66,0,0,0,53.56-37.49,35.73,35.73,0,0,0-35.14-9.4A39.89,39.89,0,0,1,1452.47,574.22Z" fill="#009056" stroke="#009056" stroke-miterlimit="10"/><path d="M1450.84,614.32h35.64V578.68A35.64,35.64,0,0,1,1450.84,614.32Z" fill="#009056" stroke="#009056" stroke-miterlimit="10"/><path d="M1291.53,614.32h14.23a35.59,35.59,0,0,1,26.35-17.53,35.46,35.46,0,0,1-4.94-18.11A35.64,35.64,0,0,0,1291.53,614.32Z" fill="#00c072" stroke="#00c072" stroke-miterlimit="10"/><path d="M1305.76,614.32h35.64a35,35,0,0,1-4.06-10.72,35.74,35.74,0,0,1-5.23-6.81A35.59,35.59,0,0,0,1305.76,614.32Z" fill="#00c072" stroke="#00c072" stroke-miterlimit="10"/><path d="M1327.17,578.68a35.46,35.46,0,0,0,4.94,18.11,35.5,35.5,0,0,1,4.52-.29,35.44,35.44,0,0,1,3.49-15.4A35.69,35.69,0,0,0,1327.17,578.68Z" fill="#00c072" stroke="#00c072" stroke-miterlimit="10"/><path d="M1336.63,596.5a35.5,35.5,0,0,0-4.52.29,35.74,35.74,0,0,0,5.23,6.81A35.33,35.33,0,0,1,1336.63,596.5Z" fill="#00c072" stroke="#00c072" stroke-miterlimit="10"/><path d="M1362.82,543a35.65,35.65,0,0,0-35.65,35.65,35.69,35.69,0,0,1,12.95,2.42A35.74,35.74,0,0,1,1363.21,562a40.39,40.39,0,0,1,1.87-18.92C1364.34,543.05,1363.58,543,1362.82,543Z" fill="#00c072" stroke="#00c072" stroke-miterlimit="10"/><path d="M1336.63,596.5a35.33,35.33,0,0,0,.71,7.1,35.54,35.54,0,0,0,25.48,10.72,36,36,0,0,0-.7-7.09A35.53,35.53,0,0,0,1336.63,596.5Z" fill="#00c072" stroke="#00c072" stroke-miterlimit="10"/><path d="M1362.82,614.32a35.54,35.54,0,0,1-25.48-10.72,35,35,0,0,0,4.06,10.72Z" fill="#00c072" stroke="#00c072" stroke-miterlimit="10"/><path d="M1362.12,607.23a36,36,0,0,1,.7,7.09,35.34,35.34,0,0,0,4.51-.29A36,36,0,0,0,1362.12,607.23Z" fill="#00c072" stroke="#00c072" stroke-miterlimit="10"/><path d="M1362.82,556.4a40.09,40.09,0,0,0,.39,5.62,35.66,35.66,0,0,1,9.06-1.16c.76,0,1.51,0,2.26.07a39.88,39.88,0,0,1,7.15-12.5,35.37,35.37,0,0,0-16.6-5.33A40.06,40.06,0,0,0,1362.82,556.4Z" fill="#00c072" stroke="#00c072" stroke-miterlimit="10"/><path d="M1402.92,516.3a40.1,40.1,0,0,0-37.84,26.8,35.37,35.37,0,0,1,16.6,5.33,40.08,40.08,0,0,1,58-3.61l1.54-.47A40.13,40.13,0,0,0,1402.92,516.3Z" fill="#00c072" stroke="#00c072" stroke-miterlimit="10"/><path d="M1381.68,548.43a39.88,39.88,0,0,0-7.15,12.5,35.56,35.56,0,0,1,23.22,10.65A35.68,35.68,0,0,0,1381.68,548.43Z" fill="#00c072" stroke="#00c072" stroke-miterlimit="10"/><path d="M1415.19,578.68a35.53,35.53,0,0,0,3.18,14.73,39.62,39.62,0,0,0,6.94-3.74A35.62,35.62,0,0,1,1441.86,566a40.27,40.27,0,0,0,.08-18.86c-.74-.8-1.51-1.57-2.3-2.31A35.67,35.67,0,0,0,1415.19,578.68Z" fill="#00c072" stroke="#00c072" stroke-miterlimit="10"/><path d="M1425.31,589.67a39.62,39.62,0,0,1-6.94,3.74,35.48,35.48,0,0,0,7,10.19,35.33,35.33,0,0,1-.71-7.1A34.92,34.92,0,0,1,1425.31,589.67Z" fill="#00c072" stroke="#00c072" stroke-miterlimit="10"/><path d="M1441.18,544.35c.29.91.54,1.84.76,2.78a40.12,40.12,0,0,1,8.69,15,35.73,35.73,0,0,1,35.14,9.4,35.7,35.7,0,0,0-44.59-27.23Z" fill="#00c072" stroke="#00c072" stroke-miterlimit="10"/><path d="M1441.94,547.13a40.27,40.27,0,0,1-.08,18.86,35.74,35.74,0,0,1,8.77-3.81A40.12,40.12,0,0,0,1441.94,547.13Z" fill="#00c072" stroke="#00c072" stroke-miterlimit="10"/><path d="M1362.82,614.32h4.68l-.17-.29A35.34,35.34,0,0,1,1362.82,614.32Z" fill="#00c072" stroke="#00c072" stroke-miterlimit="10"/></g><g id="Flower_3" data-name="Flower 3"><path d="M1131,597.28l2,.34a15,15,0,0,1,12.26,12.26l.81,4.75-4.75-.82a15,15,0,0,1-12.26-12.25l-.33-2A2,2,0,0,1,1131,597.28Z" fill="#34772f"/><path d="M1163.07,599.59l-.34,1.95a15,15,0,0,1-12.27,12.27l-4.73.82.81-4.76a15,15,0,0,1,12.25-12.25l2-.34A2,2,0,0,1,1163.07,599.59Z" fill="#34772f"/><path d="M1146.28,613.51V597s0-17.74,8.49-17.74" fill="none" stroke="#34772f" stroke-miterlimit="10" stroke-width="1.95"/><circle cx="1149.82" cy="579.43" r="8.91" fill="#fcffe3"/><rect width="1440" height="900" fill="none"/></g><g id="Land_4" data-name="Land 4"><rect x="1341.94" y="864.36" width="98.03" height="35.64" fill="#01263a" stroke="#01263a" stroke-miterlimit="10"/><path d="M985.5,778.25v6H941v-9H982.5A3,3,0,0,1,985.5,778.25Z" fill="#025e3e" stroke="#025e3e" stroke-miterlimit="10"/><rect x="1341.94" y="819.81" width="98.02" height="44.55" fill="#01263a" stroke="#01263a" stroke-miterlimit="10"/><rect x="1341.94" y="784.26" width="98.02" height="35.55" fill="#025e3e" stroke="#025e3e" stroke-miterlimit="10"/><rect x="1341.94" y="775.25" width="98.02" height="9.01" fill="#02472f" stroke="#02472f" stroke-miterlimit="10"/><rect x="1341.94" y="756.73" width="98.02" height="18.52" fill="#009056" stroke="#009056" stroke-miterlimit="10"/><rect x="1243.92" y="819.81" width="98.02" height="44.55" fill="#01324d" stroke="#01324d" stroke-miterlimit="10"/><rect x="1243.92" y="784.26" width="98.02" height="35.55" fill="#037d52" stroke="#037d52" stroke-miterlimit="10"/><rect x="1243.92" y="775.25" width="98.02" height="9.01" fill="#025e3e" stroke="#025e3e" stroke-miterlimit="10"/><rect x="1243.92" y="756.73" width="98.02" height="18.52" fill="#00c072" stroke="#00c072" stroke-miterlimit="10"/><rect x="1136.99" y="819.81" width="106.93" height="44.55" fill="#01324d" stroke="#01324d" stroke-miterlimit="10"/><rect x="1136.99" y="784.26" width="106.93" height="35.55" fill="#037d52" stroke="#037d52" stroke-miterlimit="10"/><rect x="1136.99" y="775.25" width="106.93" height="9.01" fill="#025e3e" stroke="#025e3e" stroke-miterlimit="10"/><polygon points="1243.92 756.73 1243.92 775.25 1136.99 775.25 1136.99 756.73 1183.88 756.73 1243.92 756.73" fill="#00c072" stroke="#00c072" stroke-miterlimit="10"/><rect x="940.95" y="819.81" width="196.04" height="44.55" fill="#01324d" stroke="#01324d" stroke-miterlimit="10"/><path d="M1137,784.26v35.55H941V784.26H985.5v5.67a3,3,0,0,0,3,3h2.76a3,3,0,0,1,3,3v12a3,3,0,0,0,3,3h3a3,3,0,0,0,2.93-2.35v4.58a3,3,0,0,0,3,3h3a3,3,0,0,0,3-3V787.21a3,3,0,0,1,2.47-3H1137Z" fill="#037d52" stroke="#037d52" stroke-miterlimit="10"/><path d="M1137,775.25v9H1014.63a3,3,0,0,0-2.47,3v25.91a3,3,0,0,1-3,3h-3a3,3,0,0,1-3-3v-4.58a2.81,2.81,0,0,0,.07-.65V778.25a3,3,0,0,1,3-3Z" fill="#025e3e" stroke="#025e3e" stroke-miterlimit="10"/><path d="M1137,756.73v18.52H1006.25a3,3,0,0,0-3,3v29.64a2.81,2.81,0,0,1-.07.65,3,3,0,0,1-2.93,2.35h-3a3,3,0,0,1-3-3v-12a3,3,0,0,0-3-3H988.5a3,3,0,0,1-3-3V778.25a3,3,0,0,0-3-3H941v-3.52a15,15,0,0,1,15-15Z" fill="#00c072" stroke="#00c072" stroke-miterlimit="10"/><rect x="1395.4" y="757.43" width="8.91" height="8.91" fill="#009b58"/><rect x="1306.12" y="793.07" width="8.91" height="8.91" fill="#0f9360"/><rect x="1270.65" y="784.25" width="8.91" height="8.91" fill="#0f9360"/><rect x="1404.31" y="801.98" width="8.91" height="8.91" fill="#036841"/><rect x="1431.05" y="793.07" width="8.91" height="8.91" fill="#036841"/><rect x="1288.47" y="828.71" width="8.91" height="8.91" fill="#043b54"/><rect x="1074.61" y="828.71" width="8.91" height="8.91" fill="#043b54"/><rect x="1003.32" y="837.62" width="8.91" height="8.91" fill="#043b54"/><rect x="976.59" y="855.45" width="8.91" height="8.91" fill="#043b54"/><rect x="958.77" y="828.71" width="8.91" height="8.91" fill="#043b54"/><rect x="1315.21" y="846.53" width="8.91" height="8.91" fill="#043b54"/><rect x="1422.14" y="837.62" width="8.91" height="8.91" fill="#002f44"/><rect x="1386.49" y="846.53" width="8.91" height="8.91" fill="#002f44"/><rect x="1359.76" y="828.71" width="8.91" height="17.82" fill="#002f44"/><rect x="1261.74" y="846.53" width="8.91" height="17.82" fill="#043b54"/><rect x="1056.79" y="793.07" width="8.91" height="8.91" fill="#0f9360"/><rect x="1030.06" y="810.89" width="8.91" height="8.91" fill="#0f9360"/><rect x="958.77" y="793.07" width="8.91" height="8.91" fill="#0f9360"/><rect width="1440" height="900" fill="none"/><rect x="940.98" y="864.36" width="400.96" height="35.64" fill="#01324d" stroke="#01324d" stroke-miterlimit="10"/></g><g id="Plant_4" data-name="Plant 4"><path d="M1300.34,738.92l4.06.69a12,12,0,0,1,9.8,9.81l1.18,6.84-6.84-1.17a12,12,0,0,1-9.81-9.81l-.69-4A2,2,0,0,1,1300.34,738.92Z" fill="#34772f"/><path d="M1332.38,741.23l-.67,3.9a12.22,12.22,0,0,1-10,10l-6.69,1.15,1.17-6.79a12.08,12.08,0,0,1,9.86-9.87l4-.68A2,2,0,0,1,1332.38,741.23Z" fill="#34772f"/><rect width="1440" height="900" fill="none"/></g><g id="Water"><path d="M1110.25,864.36a8.91,8.91,0,0,0,8.92-8.91V765.6a26,26,0,0,1,26-26h22.44a5,5,0,0,0,5-5V622a25.07,25.07,0,0,1,25-25H1440v17.82H1284.54a5,5,0,0,0-5,5l0,131.88a5,5,0,0,1-5,5h-25.64a5,5,0,0,0-5,5v97.63a5,5,0,0,0,5,5Z" fill="#61ffd5" opacity="0.6"/><rect width="1440" height="900" fill="none"/></g><g id="Code_2_Dock" data-name="Code 2 Dock"><path d="M1021.08,748.41v8.32h-22.4v-8.32a5.27,5.27,0,0,1,5.26-5.26h11.89A5.26,5.26,0,0,1,1021.08,748.41Z" fill="#999"/><path d="M999.53,743.15h4.41a5.27,5.27,0,0,0-5.26,5.26v8.32h-4.41v-8.32A5.26,5.26,0,0,1,999.53,743.15Z" fill="gray"/></g></g></g></svg>