<svg xmlns="http://www.w3.org/2000/svg" xmlns:xlink="http://www.w3.org/1999/xlink" viewBox="0 0 1440 900"><defs><linearGradient id="linear-gradient" x1="1263.55" y1="299.26" x2="1334.81" y2="299.26" gradientUnits="userSpaceOnUse"><stop offset="0" stop-color="#0f7dd5"/><stop offset="1" stop-color="#32a2ea"/></linearGradient></defs><g id="Layer_2" data-name="Layer 2"><g id="Layer_1-2" data-name="Layer 1-2"><g id="Watertower"><g id="Layer_35" data-name="Layer 35"><path d="M1209.73,397.92,1197,633.35l-12.91-.77L1200,387.18l.41,0A133,133,0,0,0,1209.73,397.92Z" fill="#a6eeff" stroke="#a6eeff" stroke-miterlimit="10"/><path d="M1404,387.18l15.89,245.4-12.91.77-12.67-234.69a108.17,108.17,0,0,0,9.43-11.46Z" fill="#235ebb" stroke="#235ebb" stroke-miterlimit="10"/><path d="M1301.77,348.48c52.14,0,81.86,5,96.89,8.83v4.77a62.45,62.45,0,0,1-.51,8c-15.19-3.78-44.82-8.69-96.38-8.69s-81.2,4.85-96.52,8.61a61.33,61.33,0,0,1-.51-7.94v-4.86C1219.92,353.44,1249.74,348.48,1301.77,348.48Z" fill="#81dbfb" stroke="#81dbfb" stroke-miterlimit="10"/><path d="M1398.15,370.1a63.2,63.2,0,0,1-4.84,17.51,64.46,64.46,0,0,1-33.73,33.29l-1.19-33.73-10.29.31.9,36.86a64,64,0,0,1-11.75,1.55H1337c-.73,0-1.47,0-2.21,0h-66.22c-.75,0-1.51,0-2.25,0l-1.22-.06a61.73,61.73,0,0,1-10.13-1.36l.92-37-10.29-.31-1.2,34A64.41,64.41,0,0,1,1210.27,388v-.21h-.1a62.77,62.77,0,0,1-4.93-17.77c15.32-3.76,45.07-8.61,96.52-8.61S1383,366.32,1398.15,370.1Z" fill="#48b8ec" stroke="#48b8ec" stroke-miterlimit="10"/><path d="M1398.15,370.1c9.57,2.38,13.41,4.33,13.41,4.33a89.55,89.55,0,0,1-7.82,12.77l-10,.59-.42-.18A63.2,63.2,0,0,0,1398.15,370.1Z" fill="#48b8ec" stroke="#48b8ec" stroke-miterlimit="10"/><path d="M1393.73,387.79l.58,10.87c-8.38,8.9-19.88,18-34.7,23.15l0-.91a64.46,64.46,0,0,0,33.73-33.29Z" fill="#48b8ec" stroke="#48b8ec" stroke-miterlimit="10"/><path d="M1244.42,421.14l0,.37c-14.28-5.32-26-14.65-34.67-23.59l.54-9.92A64.41,64.41,0,0,0,1244.42,421.14Z" fill="#48b8ec" stroke="#48b8ec" stroke-miterlimit="10"/><path d="M1210.18,387.79l.09.21-.54,9.92a133,133,0,0,1-9.31-10.71Z" fill="#48b8ec" stroke="#48b8ec" stroke-miterlimit="10"/><path d="M1210.18,387.79l-9.76-.58a108.35,108.35,0,0,1-8.8-12.87s3.92-1.94,13.63-4.32A62.77,62.77,0,0,0,1210.18,387.79Z" fill="#48b8ec" stroke="#48b8ec" stroke-miterlimit="10"/><path d="M1393.73,387.79l10-.59a108.17,108.17,0,0,1-9.43,11.46Z" fill="#48b8ec"/><path d="M1359.61,421.81l7.47,211.12-12.94.39L1349,424.61A73,73,0,0,0,1359.61,421.81Z" fill="#235ebb" stroke="#235ebb" stroke-miterlimit="10"/><path d="M1359.58,420.9l0,.91a73,73,0,0,1-10.59,2.8l0-.27A63.2,63.2,0,0,0,1359.58,420.9Z" fill="#235ebb" stroke="#235ebb" stroke-miterlimit="10"/><path d="M1358.39,387.17l1.19,33.73a63.2,63.2,0,0,1-10.58,3.44l-.9-36.86Z" fill="#235ebb" stroke="#235ebb" stroke-miterlimit="10"/><path d="M1312.17,237.9v7.2c-1.33,0-2.67-.07-4-.07h-12.93c-1.3,0-2.59,0-3.91.07v-7.2a5.81,5.81,0,0,1,5.81-5.8h9.2A5.8,5.8,0,0,1,1312.17,237.9Z" fill="#81dbfb" stroke="#81dbfb" stroke-miterlimit="10"/><path d="M1255.91,387.48l-.92,37a61.87,61.87,0,0,1-10.57-3.33l1.2-34Z" fill="#a6eeff" stroke="#a6eeff" stroke-miterlimit="10"/><path d="M1255,424.47v.08a71.06,71.06,0,0,1-10.59-3l0-.37A61.87,61.87,0,0,0,1255,424.47Z" fill="#a6eeff" stroke="#a6eeff" stroke-miterlimit="10"/><path d="M1255,424.55l-5.12,208.77-12.94-.39,7.47-211.42A71.06,71.06,0,0,0,1255,424.55Z" fill="#a6eeff" stroke="#a6eeff" stroke-miterlimit="10"/><path d="M1301.77,348.48c-52,0-81.85,5-97,8.74V303.51c0-37.35,48.48-57.13,86.62-58.41h20.81c38.11,1.29,86.49,21.07,86.49,58.41v53.8C1383.63,353.5,1353.91,348.48,1301.77,348.48Z" fill="#c9f9ff" stroke="#c9f9ff" stroke-miterlimit="10"/><path d="M1250.77,385c2.83,0,5.14,1,5.14,2.3s-2.31,2.29-5.14,2.29-5.16-1-5.16-2.29S1247.92,385,1250.77,385Z" fill="#a6eeff" stroke="#a6eeff" stroke-miterlimit="10"/><ellipse cx="1353.25" cy="387.17" rx="5.14" ry="2.29" fill="#235ebb" stroke="#235ebb" stroke-miterlimit="10"/></g><path d="M1285,299.69V289.45l-21.46,21.48,5.07,5.18Zm48.9-6.4c-1.59-8-7.6-14-8.29-14.71l-14.75-15-8.43,8.43-.6.6v10.24l9-9,8.39,8.53,1.28,1.3.09.09s.56.55,1.33,1.47a22.51,22.51,0,0,1,4.89,9.45c1.2,6,1.8,13.07-4.89,21.65v10.58c.63-.55,1-.94,1.17-1.08,6-5.88,9.59-11.82,11-18.17A33.69,33.69,0,0,0,1333.91,293.29Zm-44.68,31.61-.22-.11-.11,0a12.6,12.6,0,0,1-1.86-1.19c-.55-.39-1.22-.91-2-1.58-1.22-1-2.74-2.36-4.59-4.17l-4.15-4.24-5.12,5.12,4.13,4.21,0,.06c6.39,6.24,9.67,8,10.88,8.51a34.07,34.07,0,0,0,12.24,3.39,29.9,29.9,0,0,0,5.87-.12l.47-.05v-7.34A25.3,25.3,0,0,1,1289.23,324.9Z" fill="url(#linear-gradient)"/><polygon points="1298.22 276.23 1298.22 319.95 1288.63 319.95 1288.63 285.83 1289.59 284.87 1290.11 284.35 1293.01 281.45 1294.97 279.49 1295.61 278.85 1297.58 276.88 1298.22 276.23" fill="#0f7dd5" stroke="#0f7dd5" stroke-miterlimit="10" stroke-width="0.25"/><path d="M1318.3,286v43.62l-.12.09c-.44.28-.91.57-1.41.85-.16.1-.33.19-.5.28-.44.25-.91.5-1.39.74s-.91.44-1.39.65l-.79.34-1.08.42-.88.31c-.6.2-1.22.39-1.86.56l-.47.12V286Z" fill="#0f7dd5" stroke="#0f7dd5" stroke-miterlimit="10" stroke-width="0.25"/><rect x="1298.22" y="297.53" width="10.19" height="9.9" fill="#0f7dd5" stroke="#0f7dd5" stroke-miterlimit="10" stroke-width="0.25"/><rect width="1440" height="900" fill="none"/></g></g></g></svg>