<svg xmlns="http://www.w3.org/2000/svg" viewBox="0 0 1521.33 900"><g id="Layer_2" data-name="Layer 2"><g id="Layer_1-2" data-name="Layer 1"><g id="Land_1" data-name="Land 1"><path d="M405.86,472.36c4.53,0,4.53,2.24,4.53,5v12.5H361.54a5,5,0,0,0-5,5v4h-3.87a5,5,0,0,0-5,5v6.63a2.22,2.22,0,0,0,0,.45v1.57a5,5,0,0,1-4.31,4.37h-4.6v-22a5,5,0,0,0-5-5h-7.83a5,5,0,0,0-5,5v4H317a5,5,0,0,0-5,5v13h-8.64v-22a5,5,0,0,0-5-5h-138V472.3Z" fill="#c8ff6f"/><path d="M294.53,503.84v13H160.4V499l129.13-.11A5,5,0,0,1,294.53,503.84Z" fill="#94ea44"/><polygon points="81.33 499.01 81.33 489.86 160.4 489.86 160.4 498.95 81.33 499.01" fill="#4a7522"/><path d="M294.53,516.86v-13a5,5,0,0,0-5-5L160.4,499v-9.09h138a5,5,0,0,1,5,5v22Z" fill="#6fb033"/><polygon points="160.4 498.95 160.4 516.86 81.33 516.86 81.33 499.01 160.4 498.95" fill="#6fb033"/><polygon points="160.4 864.33 160.4 685.86 410.39 685.86 410.39 864.22 160.4 864.33" fill="#014366"/><rect x="81.33" y="587.86" width="79.07" height="98" fill="#025e3e"/><polygon points="160.4 472.3 160.4 489.86 81.33 489.86 81.33 472.28 160.4 472.3" fill="#96bf53"/><rect x="81.33" y="516.86" width="79.07" height="71" fill="#009056"/><polygon points="160.4 685.86 160.4 864.33 81.33 864.36 81.33 685.86 160.4 685.86" fill="#01324d"/><path d="M410.39,587.86v98h-250v-98Zm-9.25,36.07v-9.07h-9v9.07Zm-44.6,35.65V650.5h-9v9.08ZM321,632.68V615h-9v17.66ZM285.3,615v-9.08h-9V615Zm-98,53.47v-9.08h-9v9.08Z" fill="#037d52"/><path d="M410.39,516.86v71h-250v-71H294.53v30.69a5,5,0,0,0,5,5h.59a3,3,0,0,1,3,3v20.73a3,3,0,0,0,3,3H309a3,3,0,0,0,3-3v-8.44a3,3,0,0,0,3,2.46h2.91a3,3,0,0,0,3-3V516.86h9v14.87a3,3,0,0,0,3,3h2.91a3,3,0,0,0,3-3v-8.52a3,3,0,0,0,3,2.54h2.91a3,3,0,0,0,3-3v-5.89ZM365.5,570.61V552.48h-9v18.13Zm-89.11-35.85v-9.08h-9v9.08Zm-98,26.77v-9.08h-9v9.08Z" fill="#00c072"/><path d="M410.39,499v17.85H347.63v-4.37a3.69,3.69,0,0,0,0-.58v-1.44a3,3,0,0,1,3-2.55h.91a5,5,0,0,0,5-5v-4.07L410,499Z" fill="#94ea44"/><path d="M410.39,490.1V499H410l-53.46-.16v-4a5,5,0,0,1,5-5h48.85Z" fill="#6fb033"/><rect x="392.18" y="614.86" width="8.96" height="9.07" fill="#0f9360"/><rect x="356.54" y="552.48" width="8.96" height="18.13" fill="#1ed687"/><rect x="347.58" y="650.5" width="8.96" height="9.08" fill="#0f9360"/><path d="M356.54,498.85v4.07a5,5,0,0,1-5,5h-.91a3,3,0,0,0-3,2.55v-6.63a5,5,0,0,1,5-5Z" fill="#c8ff6f"/><path d="M347.67,510.47v1.44a3.69,3.69,0,0,1,0,.58v-1.57A2.22,2.22,0,0,1,347.67,510.47Z" fill="#70954c"/><path d="M347.63,516.86v5.89a3,3,0,0,1-3,3h-2.91a3,3,0,0,1-3-2.54v-3.3a3,3,0,0,1,3-3h.91a3.49,3.49,0,0,0,.65,0Z" fill="#c8ff6f"/><path d="M347.63,512.49v4.37h-4.31A5,5,0,0,0,347.63,512.49Z" fill="#c8ff6f"/><path d="M338.72,516.86h4.6a3.49,3.49,0,0,1-.65,0h-.91a3,3,0,0,0-3,3v3.3a2.32,2.32,0,0,1,0-.46Z" fill="#d9f300"/><path d="M338.76,523.21v8.52a3,3,0,0,1-3,3h-2.91a3,3,0,0,1-3-3V516.86h8.87v5.89A2.32,2.32,0,0,0,338.76,523.21Z" fill="#009056"/><path d="M338.72,494.86v22h-8.87v-13a5,5,0,0,0-5-5h-4v-4a5,5,0,0,1,5-5h7.83A5,5,0,0,1,338.72,494.86Z" fill="#6fb033"/><path d="M329.85,503.84v13h-9v-18h4A5,5,0,0,1,329.85,503.84Z" fill="#94ea44"/><rect x="311.98" y="615.02" width="8.97" height="17.66" fill="#0f9360"/><path d="M320.89,516.86V567.3a3,3,0,0,1-3,3H315a3,3,0,0,1-3-2.46v-51Z" fill="#c8ff6f"/><path d="M320.89,498.84v18H312v-13a5,5,0,0,1,5-5Z" fill="#c8ff6f"/><path d="M312,567.84v8.44a3,3,0,0,1-3,3h-2.91a3,3,0,0,1-3-3V555.55a3,3,0,0,0-3-3h-.59a5,5,0,0,1-5-5V516.86h8.86v21.71a5,5,0,0,0,5,5H309a3,3,0,0,1,3,3V567.3A3.29,3.29,0,0,0,312,567.84Z" fill="#009056"/><path d="M312,516.86v51a3.29,3.29,0,0,1,0-.54V546.57a3,3,0,0,0-3-3h-.59a5,5,0,0,1-5-5V516.86Z" fill="#c8ff6f"/><rect x="276.34" y="605.94" width="8.96" height="9.08" fill="#0f9360"/><rect x="267.43" y="525.68" width="8.96" height="9.08" fill="#1ed687"/><rect x="178.32" y="659.41" width="8.96" height="9.08" fill="#0f9360"/><rect x="169.41" y="552.45" width="8.96" height="9.08" fill="#1ed687"/><rect x="81.33" width="1440" height="900" fill="none"/></g><g id="Tree_1" data-name="Tree 1"><path d="M249.64,183.8a53.47,53.47,0,0,1,18.71,98.64,52.94,52.94,0,0,0,8-28.06,53.66,53.66,0,0,0-44.83-52.76c-8-1.88-10.64-11.48-10.64-11.48a53.66,53.66,0,0,0-51.63-39.65H89.17A52.74,52.74,0,0,0,62,158a53.29,53.29,0,0,1,45.29-25.33h80.1A53.67,53.67,0,0,1,239,172.31l.07.26c.4,1.52.73,3.08,1,4.65a54,54,0,0,1,.67,5.87H241A52.47,52.47,0,0,1,249.64,183.8Z" fill="#037d52" stroke="#037d52" stroke-linecap="round" stroke-miterlimit="10"/><path d="M142.71,319.79h-35A53.5,53.5,0,0,1,59.92,290H54A53.62,53.62,0,0,1,.5,236.56a53,53,0,0,1,8-28.06,53,53,0,0,1,27.28-7.59h.15a52.91,52.91,0,0,1,3.33-15.75,53.06,53.06,0,0,1,14.61-2.07H54A53.14,53.14,0,0,1,62,158a52.74,52.74,0,0,1,27.2-7.51h80.1a53.66,53.66,0,0,1,51.63,39.65s2.68,9.6,10.64,11.48a53.66,53.66,0,0,1,44.83,52.76,52.94,52.94,0,0,1-8,28.06A53,53,0,0,1,241,290h-4.74a6.66,6.66,0,0,0-.72,0H221.23v8.14a53,53,0,0,1-9.29,9.69h-8.81v5.82a53,53,0,0,1-24.78,6.13ZM251,262.06a1.82,1.82,0,0,0-.17-2.9l-4.13-2.71a20,20,0,0,0-23.93,1.44,5.43,5.43,0,0,0,.49,8.66h0a20,20,0,0,0,24-1.38Zm-51.37-64.53a1.8,1.8,0,0,0-2.2-1.88l-4.82,1.07A20,20,0,0,0,177,214.93a5.43,5.43,0,0,0,6.56,5.67h0a20,20,0,0,0,15.73-18.25Zm-29.12-4a20,20,0,0,0,6.33-23.25l-1.79-4.47a1.82,1.82,0,0,0-2.81-.75l-3.88,3a20,20,0,0,0-6.23,23.15,5.43,5.43,0,0,0,8.37,2.28Zm-52.76,41.35A20,20,0,0,0,105,214.45l-4.5-1.72A1.82,1.82,0,0,0,98,214.28l-.39,4.92c0,.55-.07,1.09-.07,1.63a20,20,0,0,0,12.84,18.66,5.43,5.43,0,0,0,7.36-4.6Z" fill="#025e3e" stroke="#025e3e" stroke-linecap="round" stroke-miterlimit="10"/><path d="M250.85,259.16a1.82,1.82,0,0,1,.17,2.9l-3.67,3.12a20,20,0,0,1-24,1.38h0a5.43,5.43,0,0,1-.49-8.66,20,20,0,0,1,23.93-1.44Z" fill="#0d7521"/><path d="M249.64,183.79h0a52.47,52.47,0,0,0-8.64-.71h-.27a54,54,0,0,0-.67-5.87c-.27-1.57-.6-3.13-1-4.65C239.56,174.11,242.45,182.1,249.64,183.79Z" fill="#037d52" stroke="#037d52" stroke-linecap="round" stroke-miterlimit="10"/><path d="M236.26,290h-.72A6.66,6.66,0,0,1,236.26,290Z" fill="#4a7522"/><path d="M235.52,290h-9.28a53.32,53.32,0,0,1-5,8.13V290Z" fill="#025e3e" stroke="#025e3e" stroke-linecap="round" stroke-miterlimit="10"/><path d="M226.28,290h9.24c-2.2.08-8.87.94-14.29,8.15v0a53.32,53.32,0,0,0,5-8.13Z" fill="#025e3e" stroke="#025e3e" stroke-linecap="round" stroke-miterlimit="10"/><path d="M208.15,307.84h3.79a54,54,0,0,1-6.23,4.37Q207,310.1,208.15,307.84Z" fill="#025e3e" stroke="#025e3e" stroke-linecap="round" stroke-miterlimit="10"/><path d="M203.13,307.84h5q-1.12,2.25-2.44,4.37c-.85.51-1.71,1-2.58,1.45Z" fill="#025e3e" stroke="#025e3e" stroke-linecap="round" stroke-miterlimit="10"/><path d="M197.45,195.65a1.8,1.8,0,0,1,2.2,1.88l-.31,4.81a20,20,0,0,1-15.73,18.25h0a5.43,5.43,0,0,1-6.56-5.67,20,20,0,0,1,15.6-18.21Z" fill="#0d7521" stroke="#0d7521" stroke-linecap="round" stroke-miterlimit="10"/><path d="M176.86,170.27a20,20,0,0,1-6.33,23.25h0a5.43,5.43,0,0,1-8.37-2.28,20,20,0,0,1,6.23-23.15l3.88-3a1.82,1.82,0,0,1,2.81.75Z" fill="#0d7521" stroke="#0d7521" stroke-linecap="round" stroke-miterlimit="10"/><path d="M105,214.45a20,20,0,0,1,12.78,20.42v0a5.43,5.43,0,0,1-7.36,4.6,20,20,0,0,1-12.84-18.66c0-.54,0-1.08.07-1.63l.39-4.92a1.82,1.82,0,0,1,2.46-1.55Z" fill="#0d7521" stroke="#0d7521" stroke-linecap="round" stroke-miterlimit="10"/><path d="M8.51,208.5a54,54,0,0,1,30.76-23.34,52.91,52.91,0,0,0-3.33,15.75" fill="#025e3e" stroke="#025e3e" stroke-linecap="round" stroke-miterlimit="10"/><path d="M133.71,204.14V462.37a9,9,0,0,0,18,0V204.14a9,9,0,0,0-18,0Z" fill="#01324d" stroke="#01324d" stroke-linecap="round" stroke-miterlimit="10"/><path d="M180.43,242.86l-44.68,53.3-.15.19,7,5.62,6.37-6.36L113.43,260a9,9,0,0,0-12.74,12.71l42.68,42.77,6.3-7.88,44.56-53.15a9,9,0,1,0-13.8-11.56Z" fill="#01324d" stroke="#01324d" stroke-linecap="round" stroke-miterlimit="10"/><rect x="81.33" width="1440" height="900" fill="none"/></g><g id="Bush_1" data-name="Bush 1"><path d="M231.68,454a35.5,35.5,0,0,1,4.52.29,35.74,35.74,0,0,1-5.23,6.81A35.33,35.33,0,0,0,231.68,454Z" fill="#009056" stroke="#009056" stroke-linejoin="round"/><path d="M228.19,438.56a35.44,35.44,0,0,1,3.49,15.4,35.53,35.53,0,0,0-25.49,10.73A35.74,35.74,0,0,1,228.19,438.56Z" fill="#025e3e" stroke="#025e3e" stroke-linejoin="round"/><path d="M205.1,419.48a35.74,35.74,0,0,1,23.09,19.08,35.74,35.74,0,0,0-22,26.13,36,36,0,0,0-5.21,6.8,35.45,35.45,0,0,1-19.43-8.95A40.07,40.07,0,0,0,195,441,40,40,0,0,0,205.1,419.48Z" fill="#025e3e" stroke="#025e3e" stroke-linejoin="round"/><path d="M205.1,419.48A40,40,0,0,1,195,441a40.29,40.29,0,0,0-1.18-22.57c.75-.05,1.5-.07,2.26-.07A35.66,35.66,0,0,1,205.1,419.48Z" fill="#025e3e" stroke="#025e3e" stroke-linejoin="round"/><path d="M201,471.49l-.17.29H165.16c-.18-.31-.36-.63-.53-.95a40,40,0,0,0,16.92-8.29A35.45,35.45,0,0,0,201,471.49Z" fill="#025e3e" stroke="#025e3e" stroke-linejoin="round"/><path d="M196,431.68A40,40,0,0,1,195,441,40.08,40.08,0,0,1,174.09,453a35.73,35.73,0,0,1-3.53-24,35.56,35.56,0,0,1,23.22-10.65A39.8,39.8,0,0,1,196,431.68Z" fill="#025e3e" stroke="#025e3e" stroke-linejoin="round"/><path d="M195,441a40.07,40.07,0,0,1-13.41,21.58,35.67,35.67,0,0,1-7.46-9.53A40.08,40.08,0,0,0,195,441Z" fill="#025e3e" stroke="#025e3e" stroke-linejoin="round"/><path d="M186.63,405.89A35.68,35.68,0,0,0,170.56,429a35.46,35.46,0,0,0-10.17,24.61,39.4,39.4,0,0,1-10.45-2.78,35.68,35.68,0,0,0-21.27-48.59,40.08,40.08,0,0,1,58,3.61Z" fill="#025e3e" stroke="#025e3e" stroke-linejoin="round"/><path d="M174.09,453a35.67,35.67,0,0,0,7.46,9.53,40,40,0,0,1-16.92,8.29A35.41,35.41,0,0,1,160.39,454v-.31a39.37,39.37,0,0,0,5,.31A40.2,40.2,0,0,0,174.09,453Z" fill="#025e3e" stroke="#025e3e" stroke-linejoin="round"/><path d="M169.85,436.14A35.41,35.41,0,0,0,174.09,453a40.2,40.2,0,0,1-8.7.95,39.37,39.37,0,0,1-5-.31A35.46,35.46,0,0,1,170.56,429,35.33,35.33,0,0,0,169.85,436.14Z" fill="#025e3e" stroke="#025e3e" stroke-linejoin="round"/><path d="M164.63,470.83c.17.32.35.64.53.95h-9.22A40.11,40.11,0,0,0,164.63,470.83Z" fill="#025e3e" stroke="#025e3e" stroke-linejoin="round"/><path d="M160.39,454a35.41,35.41,0,0,0,4.24,16.87,40.22,40.22,0,0,1-24.15-2.14,35.27,35.27,0,0,0,2.47-7.63,35.48,35.48,0,0,0,7-10.19,39.4,39.4,0,0,0,10.45,2.78Z" fill="#025e3e" stroke="#025e3e" stroke-linejoin="round"/><path d="M155.94,471.78H138.89a34.61,34.61,0,0,0,1.59-3.09A40,40,0,0,0,155.94,471.78Z" fill="#025e3e" stroke="#025e3e" stroke-linejoin="round"/><path d="M143,447.13a34.92,34.92,0,0,1,.66,6.83,35.33,35.33,0,0,1-.71,7.1,35.87,35.87,0,0,1-6.85,5.47,40.15,40.15,0,0,1-18.42-46.89,35.74,35.74,0,0,1,8.77,3.81A40.11,40.11,0,0,0,143,447.13Z" fill="#025e3e" stroke="#025e3e" stroke-linejoin="round"/><path d="M143,461.06a35.27,35.27,0,0,1-2.47,7.63,38.69,38.69,0,0,1-4.38-2.16A35.87,35.87,0,0,0,143,461.06Z" fill="#025e3e" stroke="#025e3e" stroke-linejoin="round"/><path d="M140.48,468.69a34.61,34.61,0,0,1-1.59,3.09H117.47a35.5,35.5,0,0,0,18.63-5.25A38.69,38.69,0,0,0,140.48,468.69Z" fill="#025e3e" stroke="#025e3e" stroke-linejoin="round"/><path d="M126.45,423.45A35.62,35.62,0,0,1,143,447.13,40.11,40.11,0,0,1,126.45,423.45Z" fill="#025e3e" stroke="#025e3e" stroke-linejoin="round"/><path d="M127.13,401.81l1.54.47c-.79.74-1.56,1.51-2.3,2.31C126.59,403.65,126.84,402.72,127.13,401.81Z" fill="#009056" stroke="#009056" stroke-linejoin="round"/><path d="M136.1,466.53A35.66,35.66,0,0,1,82.84,444.6V428.75a35.71,35.71,0,0,1,34.84-9.11,40.15,40.15,0,0,0,18.42,46.89Z" fill="#025e3e" stroke="#025e3e" stroke-linejoin="round"/><path d="M117.47,471.78H82.84V444.6A35.65,35.65,0,0,0,117.47,471.78Z" fill="#025e3e" stroke="#025e3e" stroke-linejoin="round"/><path d="M82.84,444.6v27.18h-1V436.14A35.76,35.76,0,0,0,82.84,444.6Z" fill="#025e3e" stroke="#025e3e" stroke-linejoin="round"/><path d="M82.84,428.75V444.6a35.76,35.76,0,0,1-1-8.46,35.33,35.33,0,0,1,.71-7.1Z" fill="#025e3e" stroke="#025e3e" stroke-linejoin="round"/><path d="M82.84,427.71v1l-.3.29C82.63,428.59,82.73,428.15,82.84,427.71Z" fill="#009056" stroke="#009056" stroke-linejoin="round"/><path d="M276.78,471.78H262.55a35.59,35.59,0,0,0-26.35-17.53,35.46,35.46,0,0,0,4.94-18.11A35.64,35.64,0,0,1,276.78,471.78Z" fill="#009056" stroke="#009056" stroke-linejoin="round"/><path d="M262.55,471.78H226.91A35,35,0,0,0,231,461.06a35.74,35.74,0,0,0,5.23-6.81A35.59,35.59,0,0,1,262.55,471.78Z" fill="#009056" stroke="#009056" stroke-linejoin="round"/><path d="M241.14,436.14a35.46,35.46,0,0,1-4.94,18.11,35.5,35.5,0,0,0-4.52-.29,35.44,35.44,0,0,0-3.49-15.4A35.69,35.69,0,0,1,241.14,436.14Z" fill="#009056" stroke="#009056" stroke-linejoin="round"/><path d="M241.14,436.14a35.69,35.69,0,0,0-12.95,2.42,35.74,35.74,0,0,0-23.09-19.08,40.39,40.39,0,0,0-1.87-18.92c.74-.05,1.5-.07,2.26-.07A35.65,35.65,0,0,1,241.14,436.14Z" fill="#009056" stroke="#009056" stroke-linejoin="round"/><path d="M231.68,454a35.33,35.33,0,0,1-.71,7.1,35.54,35.54,0,0,1-25.48,10.72,36,36,0,0,1,.7-7.09A35.53,35.53,0,0,1,231.68,454Z" fill="#009056" stroke="#009056" stroke-linejoin="round"/><path d="M231,461.06a35,35,0,0,1-4.06,10.72H205.49A35.54,35.54,0,0,0,231,461.06Z" fill="#009056" stroke="#009056" stroke-linejoin="round"/><path d="M206.19,464.69a36,36,0,0,0-.7,7.09,35.34,35.34,0,0,1-4.51-.29A36,36,0,0,1,206.19,464.69Z" fill="#009056" stroke="#009056" stroke-linejoin="round"/><path d="M205.49,471.78h-4.68l.17-.29A35.34,35.34,0,0,0,205.49,471.78Z" fill="#009056" stroke="#009056" stroke-linejoin="round"/><path d="M205.49,413.86a40.09,40.09,0,0,1-.39,5.62,35.66,35.66,0,0,0-9.06-1.16c-.76,0-1.51,0-2.26.07a39.88,39.88,0,0,0-7.15-12.5,35.37,35.37,0,0,1,16.6-5.33A40.06,40.06,0,0,1,205.49,413.86Z" fill="#009056" stroke="#009056" stroke-linejoin="round"/><path d="M203.23,400.56a35.37,35.37,0,0,0-16.6,5.33,40.08,40.08,0,0,0-58-3.61l-1.54-.47a40.12,40.12,0,0,1,76.1-1.25Z" fill="#009056" stroke="#009056" stroke-linejoin="round"/><path d="M186.63,405.89a39.88,39.88,0,0,1,7.15,12.5A35.56,35.56,0,0,0,170.56,429,35.68,35.68,0,0,1,186.63,405.89Z" fill="#009056" stroke="#009056" stroke-linejoin="round"/><path d="M153.12,436.14a35.53,35.53,0,0,1-3.18,14.73,39.62,39.62,0,0,1-6.94-3.74,35.62,35.62,0,0,0-16.55-23.68,40.27,40.27,0,0,1-.08-18.86c.74-.8,1.51-1.57,2.3-2.31A35.67,35.67,0,0,1,153.12,436.14Z" fill="#009056" stroke="#009056" stroke-linejoin="round"/><path d="M149.94,450.87a35.48,35.48,0,0,1-7,10.19,35.33,35.33,0,0,0,.71-7.1,34.92,34.92,0,0,0-.66-6.83A39.62,39.62,0,0,0,149.94,450.87Z" fill="#009056" stroke="#009056" stroke-linejoin="round"/><path d="M127.13,401.81c-.29.91-.54,1.84-.76,2.78a40.12,40.12,0,0,0-8.69,15.05,35.71,35.71,0,0,0-34.84,9.11v-1a35.69,35.69,0,0,1,44.29-25.9Z" fill="#009056" stroke="#009056" stroke-linejoin="round"/><path d="M126.37,404.59a40.27,40.27,0,0,0,.08,18.86,35.74,35.74,0,0,0-8.77-3.81A40.12,40.12,0,0,1,126.37,404.59Z" fill="#009056" stroke="#009056" stroke-linejoin="round"/></g><g id="Flower_1" data-name="Flower 1"><path d="M243.69,454.48l2,.34a15,15,0,0,1,12.26,12.26l.81,4.75L254,471a15,15,0,0,1-12.26-12.25l-.33-2A2,2,0,0,1,243.69,454.48Z" fill="#53b548"/><path d="M275.72,456.79l-.34,1.95A15,15,0,0,1,263.11,471l-4.74.81.82-4.76a15,15,0,0,1,12.25-12.25l2-.34A2,2,0,0,1,275.72,456.79Z" fill="#53b548"/><line x1="258.54" y1="470.71" x2="258.54" y2="445.54" fill="none" stroke="#53b548" stroke-miterlimit="10" stroke-width="2"/><circle cx="258.55" cy="436.63" r="8.91" fill="#fcffe3"/><rect x="81.33" width="1440" height="900" fill="none"/></g><g id="Plant_1" data-name="Plant 1"><path d="M368.44,454.93l4.05.7a12,12,0,0,1,9.81,9.81l1.17,6.84-6.84-1.18a12,12,0,0,1-9.8-9.8l-.7-4.06A2,2,0,0,1,368.44,454.93Z" fill="#34772f"/><path d="M400.47,457.24l-.67,3.9a12.23,12.23,0,0,1-10,10l-6.69,1.15,1.16-6.8a12.1,12.1,0,0,1,9.87-9.86l4-.69A2,2,0,0,1,400.47,457.24Z" fill="#34772f"/><rect x="81.33" width="1440" height="900" fill="none"/></g><g id="Ladder"><g id="Ladder_Shadow" data-name="Ladder Shadow" opacity="0.2"><polygon points="184.05 472.27 210.78 677.13 224.18 677.13 199.71 490.09 197.38 472.27 184.05 472.27"/><polygon points="241.97 472.27 268.7 677.13 282.09 677.13 255.3 472.27 241.97 472.27"/><polygon points="199.71 490.09 248.75 490.09 249.92 499.01 200.88 499.01 199.71 490.09"/><polygon points="203.21 516.83 252.24 516.83 253.41 525.76 204.38 525.74 203.21 516.83"/><polygon points="206.71 543.56 255.73 543.56 256.89 552.47 207.87 552.47 206.71 543.56"/><polygon points="210.2 570.29 259.24 570.29 260.38 579.2 211.37 579.2 210.2 570.29"/><polygon points="213.7 597.02 262.71 597.02 263.87 605.94 214.87 605.94 213.7 597.02"/><polygon points="217.2 623.76 266.19 623.76 267.36 632.67 218.36 632.67 217.2 623.76"/><polygon points="220.69 650.49 269.68 650.49 270.85 659.4 221.86 659.4 220.69 650.49"/><circle cx="248.67" cy="494.55" r="4.45"/><circle cx="252.21" cy="521.29" r="4.45"/><circle cx="255.72" cy="548.01" r="4.45"/><circle cx="259.2" cy="574.75" r="4.45"/><circle cx="262.68" cy="601.48" r="4.45"/><circle cx="266.21" cy="628.21" r="4.45"/><circle cx="269.74" cy="654.95" r="4.45"/><ellipse cx="275.42" cy="677.33" rx="6.67" ry="2.09"/><ellipse cx="217.5" cy="677.33" rx="6.67" ry="2.09"/></g><polygon points="196.17 463.37 222.9 668.23 236.3 668.23 211.84 481.19 209.5 463.37 196.17 463.37" fill="#74533a"/><polygon points="254.09 463.37 280.82 668.23 294.21 668.23 267.42 463.37 254.09 463.37" fill="#74533a"/><polygon points="211.84 481.19 260.87 481.19 262.04 490.1 213 490.1 211.84 481.19" fill="#8e6143"/><polygon points="215.33 507.92 264.36 507.92 265.53 516.86 216.5 516.83 215.33 507.92" fill="#8e6143"/><polygon points="218.83 534.65 267.85 534.65 269.01 543.56 219.99 543.56 218.83 534.65" fill="#8e6143"/><polygon points="222.32 561.39 271.36 561.39 272.5 570.3 223.49 570.3 222.32 561.39" fill="#8e6143"/><polygon points="225.82 588.12 274.83 588.12 275.99 597.03 226.99 597.03 225.82 588.12" fill="#8e6143"/><polygon points="229.32 614.85 278.31 614.85 279.48 623.76 230.48 623.76 229.32 614.85" fill="#8e6143"/><polygon points="232.81 641.58 281.8 641.58 282.97 650.5 233.98 650.5 232.81 641.58" fill="#8e6143"/><circle cx="260.79" cy="485.64" r="4.45" fill="#8e6143"/><circle cx="264.33" cy="512.39" r="4.45" fill="#8e6143"/><circle cx="267.85" cy="539.11" r="4.45" fill="#8e6143"/><circle cx="271.32" cy="565.84" r="4.45" fill="#8e6143"/><circle cx="274.8" cy="592.57" r="4.45" fill="#8e6143"/><circle cx="278.34" cy="619.31" r="4.45" fill="#8e6143"/><circle cx="281.86" cy="646.04" r="4.45" fill="#8e6143"/><ellipse cx="202.84" cy="463.47" rx="6.67" ry="2.09" fill="#74533a"/><ellipse cx="260.79" cy="463.47" rx="6.67" ry="2.09" fill="#74533a"/><ellipse cx="287.54" cy="668.42" rx="6.67" ry="2.09" fill="#74533a"/><ellipse cx="229.62" cy="668.42" rx="6.67" ry="2.09" fill="#74533a"/><rect x="81.33" width="1440" height="900" fill="none"/></g></g></g></svg>