<svg xmlns="http://www.w3.org/2000/svg" viewBox="0 0 1440.5 900.5"><g id="Layer_2" data-name="Layer 2"><g id="Layer_2-2" data-name="Layer 2"><g id="Land_2" data-name="Land 2"><polygon points="363.1 712.87 338.5 712.87 338.5 694.92 346.77 694.94 363.1 712.87" fill="#02284c" stroke="#02284c" stroke-miterlimit="10"/><polygon points="346.77 694.94 338.5 694.92 338.5 685.94 338.58 685.94 346.77 694.94" fill="#02284c" stroke="#02284c" stroke-miterlimit="10"/><polygon points="587.62 846.54 587.62 864.36 543.06 864.36 543.06 846.54 587.57 846.54 587.62 846.54" fill="#005592" stroke="#005592" stroke-miterlimit="10"/><rect x="249" y="846.54" width="294.06" height="17.82" fill="#005592" stroke="#005592" stroke-miterlimit="10"/><rect x="249.03" y="864.36" width="338.54" height="35.64" fill="#005592" stroke="#005592" stroke-miterlimit="10"/><path d="M587.62,839.81v6.73H543.06v-9.08h44.42A20.31,20.31,0,0,1,587.62,839.81Z" fill="#023362" stroke="#023362" stroke-miterlimit="10"/><rect x="249" y="837.46" width="294.06" height="9.08" fill="#023362" stroke="#023362" stroke-miterlimit="10"/><polygon points="184.2 597.03 249 668.32 106.43 668.32 106.43 597.03 184.19 597.03 184.2 597.03" fill="#005592" stroke="#005592" stroke-miterlimit="10"/><rect x="44.05" y="597.03" width="62.38" height="71.29" fill="#003f6c"/><rect x="44.05" y="597.03" width="62.38" height="71.29" fill="none" stroke="#003f6c" stroke-miterlimit="10"/><path d="M142.08,694.82l.13,142.64a20.18,20.18,0,0,0-.14,2.35v24.55H106.43V709.87a3,3,0,0,0,3,3h2.91a3,3,0,0,0,3-3v-15Z" fill="#005592" stroke="#005592" stroke-miterlimit="10"/><rect x="106.43" y="864.36" width="35.64" height="35.64" fill="#005592" stroke="#005592" stroke-miterlimit="10"/><path d="M543.06,756.18v63.63H462.87V793.07L373.2,695l42,.09a3,3,0,0,1,3,3v11.83a3,3,0,0,0,3,3h2.91a3,3,0,0,1,3,3v20.73a3,3,0,0,0,3,3h2.92a3,3,0,0,0,3-3V706.32a2.73,2.73,0,0,1,.07.64V727.7a3,3,0,0,0,3,3H442a3,3,0,0,0,3-3V694.82h53.23l33.08,33.07A40,40,0,0,1,543.06,756.18Z" fill="#005592" stroke="#005592" stroke-miterlimit="10"/><path d="M489.32,685.86l8.95,9H445v-6a3,3,0,0,1,3-3h41.28Z" fill="#023362" stroke="#023362" stroke-miterlimit="10"/><rect x="293.56" y="801.98" width="142.57" height="17.83" fill="#2b7fbd"/><polygon points="436.13 793.07 436.13 801.98 293.56 801.98 293.56 793.07 411.79 793.07 436.13 793.07" fill="#023362" stroke="#023362" stroke-miterlimit="10"/><polygon points="411.79 766.34 436.13 793.07 411.79 793.07 411.79 775.25 411.79 766.34" fill="#02284c"/><path d="M436.06,706.32v30.33a3,3,0,0,1-3,3h-2.92a3,3,0,0,1-3-3V715.92a3,3,0,0,0-3-3h-2.91a3,3,0,0,1-3-3V698.09a3,3,0,0,0-3-3l-42-.09L365,686l59.25.14a3,3,0,0,1,3,3V701a3,3,0,0,0,3,3h2.91A3,3,0,0,1,436.06,706.32Z" fill="#023362"/><polygon points="411.79 775.25 411.79 793.07 293.56 793.07 277.27 775.25 411.79 775.25" fill="#2b7fbd"/><polygon points="411.79 766.34 411.79 775.25 277.27 775.25 269.12 766.34 387.45 766.34 411.79 766.34" fill="#023362" stroke="#023362" stroke-miterlimit="10"/><polygon points="411.79 766.34 387.45 766.34 387.45 748.52 387.45 739.61 411.79 766.34" fill="#02284c"/><polygon points="387.45 748.52 387.45 766.34 269.12 766.34 252.83 748.52 387.45 748.52" fill="#2b7fbd"/><polygon points="387.45 739.61 387.45 748.52 252.83 748.52 244.68 739.61 363.1 739.61 387.45 739.61" fill="#023362" stroke="#023362" stroke-miterlimit="10"/><polygon points="387.45 739.61 363.1 739.61 363.1 721.79 363.1 712.87 387.45 739.61" fill="#02284c"/><polygon points="363.1 721.79 363.1 739.61 244.68 739.61 228.39 721.79 363.1 721.79" fill="#2b7fbd"/><polygon points="363.1 712.87 363.1 721.79 228.39 721.79 220.24 712.87 338.5 712.87 363.1 712.87" fill="#023362" stroke="#023362" stroke-miterlimit="10"/><polygon points="203.94 695.05 203.73 694.82 293.48 694.82 338.5 694.92 338.5 712.87 220.24 712.87 203.94 695.05" fill="#2b7fbd"/><polygon points="338.5 685.94 338.5 694.92 293.48 694.82 203.73 694.82 195.54 685.86 302.47 685.86 338.5 685.94" fill="#023362" stroke="#023362" stroke-miterlimit="10"/><polygon points="266.69 793.07 266.69 819.81 249 819.81 249 801.98 169 715.1 169 694.82 177.16 694.82 266.69 793.07" fill="#023362" stroke="#023362" stroke-miterlimit="10"/><rect x="142.07" y="846.54" width="106.93" height="17.82" fill="#023362" stroke="#023362" stroke-miterlimit="10"/><path d="M249,837.46v9.08H142.07v-6.73a20.18,20.18,0,0,1,.14-2.35Z" fill="#02284c" stroke="#02284c" stroke-miterlimit="10"/><polygon points="249 801.98 249 819.81 169 819.81 169 715.1 249 801.98" fill="#023362" stroke="#023362" stroke-miterlimit="10"/><polygon points="175.86 587.86 184.19 597.03 106.43 597.03 106.43 587.86 175.86 587.86" fill="#024763" stroke="#024763" stroke-miterlimit="10"/><polygon points="169 685.86 177.16 694.82 169 694.82 169 685.86" fill="#023362"/><path d="M175.86,587.86H106.43V570.3h40.19a30,30,0,0,1,22.2,9.82Z" fill="#35b1d1"/><path d="M169,715.1V819.81h-6.93a20,20,0,0,0-19.86,17.65l-.13-142.64h8.24Z" fill="#005592" stroke="#005592" stroke-miterlimit="10"/><polygon points="169 694.82 169 715.1 150.32 694.82 160.01 694.82 169 694.82" fill="#023362" stroke="#023362" stroke-miterlimit="10"/><polygon points="169 685.86 169 694.82 160.01 694.82 150.32 694.82 142.07 685.86 169 685.86" fill="#023362" stroke="#023362" stroke-miterlimit="10"/><polygon points="142.07 685.86 150.32 694.82 142.08 694.82 142.07 685.86" fill="#023362" stroke="#023362" stroke-miterlimit="10"/><path d="M142.07,685.86v9H115.34v-6a3,3,0,0,1,3-3Z" fill="#023362" stroke="#023362" stroke-miterlimit="10"/><path d="M106.43,709.87V864.36H.5V721.79H24.05a20,20,0,0,0,20-20V695.1H76.62a3,3,0,0,1,3,3v56.37a3,3,0,0,0,3,3h2.91a3,3,0,0,0,3-3V707a3.1,3.1,0,0,1,.08-.69v39.2a3,3,0,0,0,3,3h2.91a3,3,0,0,0,3-3v-26a3,3,0,0,0,2.92,2.32h2.91a3,3,0,0,0,3-3v-21c0-.11,0-.23,0-.34a2.62,2.62,0,0,1,.06.57Z" fill="#023362" stroke="#023362" stroke-miterlimit="10"/><rect x="44.05" y="587.86" width="62.38" height="9.17" fill="#002e50"/><path d="M106.43,570.3v17.56H44.05V580.3a10,10,0,0,1,10-10Z" fill="#27849c"/><path d="M88.61,689.14v17.18a3.1,3.1,0,0,0-.08.69v47.46a3,3,0,0,1-3,3H82.62a3,3,0,0,1-3-3V698.1a3,3,0,0,0-3-3H44.05v-9H85.61A3,3,0,0,1,88.61,689.14Z" fill="#02284c" stroke="#02284c" stroke-miterlimit="10"/><rect x="142.15" y="605.94" width="8.96" height="9.08" fill="#2872a7" stroke="#005592" stroke-miterlimit="10"/><rect x="177.72" y="641.58" width="8.96" height="9.08" fill="#2872a7" stroke="#005592" stroke-miterlimit="10"/><rect x="124.22" y="632.67" width="8.96" height="8.91" fill="#2872a7" stroke="#005592" stroke-miterlimit="10"/><rect x="124.25" y="730.69" width="8.96" height="8.91" fill="#0b5197"/><rect x="150.99" y="739.6" width="8.96" height="8.91" fill="#0b5197"/><rect x="489.6" y="739.6" width="8.96" height="8.91" fill="#0b5197"/><rect x="507.42" y="784.16" width="8.96" height="8.91" fill="#0b5197"/><rect x="471.78" y="721.69" width="8.96" height="8.91" fill="#0b5197"/><rect x="471.78" y="775.25" width="8.96" height="8.91" fill="#0b5197"/><rect x="124.25" y="810.89" width="8.96" height="8.91" fill="#0b5197"/><rect x="35.14" y="819.8" width="8.96" height="8.91" fill="#0b496e"/><rect x="17.32" y="766.34" width="8.96" height="8.91" fill="#0b496e"/><rect x="61.88" y="775.25" width="8.96" height="17.82" fill="#0b496e"/><rect x="284.69" y="703.96" width="17.78" height="8.97" fill="#1169ab"/><rect x="275.76" y="730.69" width="17.78" height="8.97" fill="#1169ab"/><rect x="222.29" y="694.94" width="17.78" height="8.97" fill="#126fb5"/><rect x="302.49" y="721.75" width="17.78" height="8.97" fill="#126fb5"/><rect x="302.49" y="748.53" width="17.78" height="8.97" fill="#1169ab"/><rect x="347.1" y="748.53" width="17.78" height="8.97" fill="#126fb5"/><rect x="338.14" y="757.52" width="17.78" height="8.97" fill="#126fb5"/><rect x="382.69" y="784.16" width="17.78" height="8.97" fill="#1169ab"/><rect x="338.14" y="801.98" width="17.78" height="8.97" fill="#1169ab"/><rect x="391.58" y="810.95" width="17.78" height="8.97" fill="#1169ab"/><rect x="293.6" y="775.22" width="17.78" height="8.97" fill="#126fb5"/><rect x="293.58" y="694.83" width="17.78" height="9.18" fill="#1169ab"/><rect x="0.5" y="864.36" width="105.93" height="35.64" fill="#023362" stroke="#023362" stroke-miterlimit="10"/><path d="M587.48,837.46H543.06V819.81h24.56A20,20,0,0,1,587.48,837.46Z" fill="#146fb3" stroke="#146fb3" stroke-miterlimit="10"/><polygon points="543.06 819.81 543.06 837.46 249 837.46 249 819.81 266.69 819.81 293.56 819.81 436.13 819.81 462.87 819.81 543.06 819.81" fill="#146fb3" stroke="#146fb3" stroke-miterlimit="10"/><path d="M365,686l-26.4-.06-.08-.08v.08l-36-.08H118.34a3,3,0,0,0-3,3v6h-6a3,3,0,0,0-2.92,2.32V668.32H451.07A50,50,0,0,1,486.42,683l2.89,2.89H448a3,3,0,0,0-3,3v6h-6a3,3,0,0,0-3,3v8.5a3,3,0,0,0-2.93-2.36h-2.91a3,3,0,0,1-3-3V689.14a3,3,0,0,0-3-3Z" fill="#146fb3" stroke="#146fb3" stroke-miterlimit="10"/><polygon points="462.87 793.07 462.87 819.81 436.13 819.81 436.13 801.98 436.13 793.07 411.79 766.34 387.45 739.61 363.1 712.87 346.77 694.94 373.2 695 462.87 793.07" fill="#146fb3" stroke="#146fb3" stroke-miterlimit="10"/><path d="M445,694.82V727.7a3,3,0,0,1-3,3h-2.91a3,3,0,0,1-3-3V707a2.73,2.73,0,0,0-.07-.64v-8.5a3,3,0,0,1,3-3Z" fill="#146fb3" stroke="#146fb3" stroke-miterlimit="10"/><polygon points="364.98 686 373.2 695 346.77 694.94 338.58 685.94 364.98 686" fill="#146fb3" stroke="#146fb3" stroke-miterlimit="10"/><polygon points="228.39 721.79 244.68 739.61 252.83 748.52 269.12 766.34 277.27 775.25 293.56 793.07 293.56 801.98 293.56 819.81 266.69 819.81 266.69 793.07 177.16 694.82 203.73 694.82 203.94 695.05 220.24 712.87 228.39 721.79" fill="#146fb3" stroke="#146fb3" stroke-miterlimit="10"/><polygon points="195.54 685.86 203.73 694.82 177.16 694.82 169 685.86 195.54 685.86" fill="#146fb3" stroke="#146fb3" stroke-miterlimit="10"/><path d="M115.34,694.82v15a3,3,0,0,1-3,3h-2.91a3,3,0,0,1-3-3V697.14a3,3,0,0,1,2.92-2.32Z" fill="#146fb3" stroke="#146fb3" stroke-miterlimit="10"/><path d="M106.43,668.32v28.82a2,2,0,0,0-.06.34,3,3,0,0,0-2.94-2.43h-2.91a3,3,0,0,0-3,3v21.46a3.08,3.08,0,0,1-.08-.68V707a3,3,0,0,0-3-3H91.53a3,3,0,0,0-2.92,2.31V689.14a3,3,0,0,0-3-3H44.05V668.32Z" fill="#00528c" stroke="#00528c" stroke-miterlimit="10"/><path d="M106.37,697.48c0,.11,0,.23,0,.34v21a3,3,0,0,1-3,3h-2.91a3,3,0,0,1-2.92-2.32V698.05a3,3,0,0,1,3-3h2.91A3,3,0,0,1,106.37,697.48Z" fill="#00528c" stroke="#00528c" stroke-miterlimit="10"/><path d="M97.52,719.51v26a3,3,0,0,1-3,3H91.61a3,3,0,0,1-3-3v-39.2A3,3,0,0,1,91.53,704h2.91a3,3,0,0,1,3,3v11.82A3.08,3.08,0,0,0,97.52,719.51Z" fill="#00528c" stroke="#00528c" stroke-miterlimit="10"/><rect x="79.7" y="614.89" width="8.96" height="8.91" fill="#296188"/><rect x="61.82" y="641.54" width="8.96" height="8.91" fill="#296188"/><path d="M169,819.81h80v17.65H142.21a20,20,0,0,1,19.86-17.65Z" fill="#00528c" stroke="#00528c" stroke-miterlimit="10"/><rect x="142.07" y="864.36" width="106.93" height="35.64" fill="#023362" stroke="#023362" stroke-miterlimit="10"/><rect x="0.5" width="1440" height="900" fill="none"/></g><g id="Flower_2" data-name="Flower 2"><path d="M60.72,552.72l2,.34a15,15,0,0,1,12.26,12.26l.81,4.75L71,569.25A15,15,0,0,1,58.74,557l-.33-2A2,2,0,0,1,60.72,552.72Z" fill="#0f3455"/><path d="M92.75,555l-.34,2a15,15,0,0,1-12.27,12.27l-4.73.82.81-4.76a15,15,0,0,1,12.25-12.25l2-.34A2,2,0,0,1,92.75,555Z" fill="#0f3455"/><path d="M75.57,569V552.48s0-17.75-8.9-17.75" fill="none" stroke="#0f3455" stroke-miterlimit="10" stroke-width="2"/><circle cx="72.08" cy="534.87" r="8.91" fill="#f8c339"/><rect x="0.5" width="1440" height="900" fill="none"/></g><g id="Plant_2" data-name="Plant 2"><path d="M287.61,650.92l4.05.69a12,12,0,0,1,9.81,9.81l1.17,6.84-6.84-1.17a12,12,0,0,1-9.8-9.81l-.7-4A2,2,0,0,1,287.61,650.92Z" fill="#0f3455"/><path d="M319.64,653.23l-.67,3.9a12.21,12.21,0,0,1-10,10l-6.69,1.15,1.16-6.79a12.07,12.07,0,0,1,9.87-9.86l4-.69A2,2,0,0,1,319.64,653.23Z" fill="#0f3455"/><rect x="0.5" width="1440" height="900" fill="none"/></g><g id="Plant_3" data-name="Plant 3"><path d="M198.5,802.46l4.05.69a12,12,0,0,1,9.81,9.81l1.17,6.84-6.84-1.17a12,12,0,0,1-9.8-9.81l-.7-4.05A2,2,0,0,1,198.5,802.46Z" fill="#0f3455"/><path d="M230.53,804.77l-.67,3.9a12.2,12.2,0,0,1-10,10l-6.69,1.15,1.16-6.79a12.07,12.07,0,0,1,9.87-9.86l4-.69A2,2,0,0,1,230.53,804.77Z" fill="#0f3455"/><rect x="0.5" width="1440" height="900" fill="none"/></g><g id="Heart_Dock" data-name="Heart Dock"><path d="M418.39,660v8.32H396V660a5.27,5.27,0,0,1,5.26-5.26h11.89A5.26,5.26,0,0,1,418.39,660Z" fill="#1e6287"/><path d="M396.84,654.74h4.41A5.27,5.27,0,0,0,396,660v8.32h-4.41V660A5.26,5.26,0,0,1,396.84,654.74Z" fill="#114b6e"/></g></g></g></svg>