<svg xmlns="http://www.w3.org/2000/svg" xmlns:xlink="http://www.w3.org/1999/xlink" viewBox="0 0 702.15 550.6"><defs><clipPath id="clip-path"><path d="M172.35,461.39s22.46,78.39-77.6,72.54c-85-5-62.11-72.56-62.11-72.56h0A35,35,0,0,1,40.39,405l0-.06a24.41,24.41,0,0,1-.92-6.5,24.81,24.81,0,0,1,47.37-10.32h25.73A24.8,24.8,0,0,1,160,398.41a25.42,25.42,0,0,1-.43,4.39h.05a35.05,35.05,0,0,1,12.77,58.57Z" fill="none"/></clipPath><linearGradient id="linear-gradient" x1="420.46" y1="233.01" x2="597.77" y2="233.01" gradientUnits="userSpaceOnUse"><stop offset="0" stop-color="#86e4db"/><stop offset="1" stop-color="#9ee7e5"/></linearGradient><linearGradient id="linear-gradient-2" x1="479.64" y1="533.89" x2="479.64" y2="248.83" gradientUnits="userSpaceOnUse"><stop offset="0" stop-color="#46d6d8"/><stop offset="1" stop-color="#9ee7e5"/></linearGradient><linearGradient id="linear-gradient-3" x1="165.89" y1="454" x2="442.63" y2="294.22" gradientUnits="userSpaceOnUse"><stop offset="0" stop-color="#3db2b2"/><stop offset="1" stop-color="#46d6d8"/></linearGradient><clipPath id="clip-path-2"><path d="M532.05,402.29l7.07,113.2a20,20,0,0,0,20,18.75h78.26a20,20,0,0,0,20-18.75l7.08-113.2a10,10,0,0,0-10-10.62H542A10,10,0,0,0,532.05,402.29Z" fill="none"/></clipPath><linearGradient id="linear-gradient-4" x1="562.04" y1="133.38" x2="619.27" y2="133.38" gradientUnits="userSpaceOnUse"><stop offset="0" stop-color="#60dbc1"/><stop offset="1" stop-color="#2cd0ef"/></linearGradient></defs><g id="Layer_2" data-name="Layer 2"><g id="Illustration_2" data-name="Illustration 2"><g id="Cards"><rect x="352.48" y="26.32" width="142.57" height="177.96" rx="20" fill="#86e4db" opacity="0.6"/><rect x="522.49" y="26.32" width="142.57" height="177.96" rx="20" fill="#9ee7e5" opacity="0.6"/></g><g id="Arrows"><path id="Code_2_Arrow" data-name="Code 2 Arrow" d="M420.93,74.87,407.39,61.22a5,5,0,0,1-1.45-3.52V55.85a5,5,0,0,1,5-5h25.65a5,5,0,0,1,5,5V57.7a5,5,0,0,1-1.45,3.52L426.61,74.87A4,4,0,0,1,420.93,74.87Z" fill="#fff"/><path id="Code_2_Arrow-2" data-name="Code 2 Arrow" d="M590.93,74.6,577.4,61A5,5,0,0,1,576,57.43V55.58a5,5,0,0,1,5-5H606.6a5,5,0,0,1,5,5v1.85A5,5,0,0,1,610.15,61L596.61,74.6A4,4,0,0,1,590.93,74.6Z" fill="#fff"/></g><g id="Logo_2_Orb" data-name="Logo 2 Orb"><g opacity="0.35"><circle cx="593.36" cy="133.37" r="40.1" fill="#fff"/></g></g><g id="Heart_2_Orb" data-name="Heart 2 Orb"><g opacity="0.35"><circle cx="423.77" cy="133.64" r="40.1" fill="#fff"/></g></g><g id="Heart_2" data-name="Heart 2"><g id="Heart"><path d="M424.47,127.8A11.46,11.46,0,1,1,413,116.35,11.46,11.46,0,0,1,424.47,127.8Z" fill="#f95a5a"/><circle cx="434.52" cy="127.8" r="11.46" fill="#f95a5a"/><polygon points="404.5 135.47 443.02 135.47 423.77 156.68 404.5 135.47" fill="#f95a5a"/><rect x="412.31" y="127.8" width="22.91" height="11.46" fill="#f95a5a"/></g></g><g id="Docks"><g id="Heart_Dock" data-name="Heart Dock"><path d="M437.87,204.87v8.32h-22.4v-8.32a5.27,5.27,0,0,1,5.26-5.26h11.89A5.26,5.26,0,0,1,437.87,204.87Z" fill="#54777f"/><path d="M416.32,199.61h4.41a5.27,5.27,0,0,0-5.26,5.26v8.32h-4.41v-8.32A5.26,5.26,0,0,1,416.32,199.61Z" fill="#3b5c63"/></g><g id="Heart_Dock-2" data-name="Heart Dock"><path d="M607.13,204.87v8.32h-22.4v-8.32a5.27,5.27,0,0,1,5.26-5.26h11.89A5.26,5.26,0,0,1,607.13,204.87Z" fill="#54777f"/><path d="M585.58,199.61H590a5.27,5.27,0,0,0-5.26,5.26v8.32h-4.41v-8.32A5.26,5.26,0,0,1,585.58,199.61Z" fill="#3b5c63"/></g></g><g id="Plant"><g id="Flower_1_copy" data-name="Flower 1 copy"><path d="M241.59,234.05,239.88,244a76.79,76.79,0,0,1-62.72,62.72L153,310.88l4.16-24.3A76.69,76.69,0,0,1,219.74,224l10-1.72A10.22,10.22,0,0,1,241.59,234.05Z" fill="#98aa4b"/><path d="M157.13,302.56s-8.91-115.84,44.55-160.4" fill="none" stroke="#a7c153" stroke-miterlimit="10" stroke-width="10"/><circle cx="219.5" cy="124.34" r="44.55" fill="#f4ece1"/><path d="M85.7,222.25l10,1.72a76.72,76.72,0,0,1,62.65,62.65l4.17,24.26-24.28-4.17a76.71,76.71,0,0,1-62.63-62.63l-1.72-10A10.22,10.22,0,0,1,85.7,222.25Z" fill="#afd157"/></g><path d="M32.38,312.3v33.46a10,10,0,0,0,10,10h229.5a10,10,0,0,0,10-10V312.3a10,10,0,0,0-10-10H42.38A10,10,0,0,0,32.38,312.3Z" fill="#ff9b5e"/><path d="M264.06,355.76,250.74,489A50,50,0,0,1,201,534H113.27a50,50,0,0,1-49.75-45L50.2,355.76" fill="#ef8f5b"/><path d="M253.13,465,250.74,489A50,50,0,0,1,201,534H113.27a50,50,0,0,1-49.75-45L60.67,465" fill="#d17a54"/><polygon points="50.2 355.76 51.09 364.67 263.17 364.67 264.06 355.76 50.2 355.76" fill="#d17a54"/></g><g id="Frog_3" data-name="Frog 3"><path d="M57.45,517h0a12.73,12.73,0,0,1,12.73,12.73v4.25a0,0,0,0,1,0,0H44.72a0,0,0,0,1,0,0v-4.25A12.73,12.73,0,0,1,57.45,517Z" transform="translate(114.91 1050.88) rotate(-180)" fill="#4b9b3a"/><path d="M13.85,474.38S-4.42,461.6,1,449.57s21.61,3.71,21.61,3.71l10.54,8.33L30.06,485S18.63,478.37,13.85,474.38Z" fill="#4b9b3a"/><path d="M172.35,461.39s22.46,78.39-77.6,72.54c-85-5-62.11-72.56-62.11-72.56h0A35,35,0,0,1,40.39,405l0-.06a24.41,24.41,0,0,1-.92-6.5,24.81,24.81,0,0,1,47.37-10.32h25.73A24.8,24.8,0,0,1,160,398.41a25.42,25.42,0,0,1-.43,4.39h.05a35.05,35.05,0,0,1,12.77,58.57Z" fill="#49b236"/><path d="M148.2,517h0a11.91,11.91,0,0,1,11.91,11.91v5.07a0,0,0,0,1,0,0H136.29a0,0,0,0,1,0,0v-5.07A11.91,11.91,0,0,1,148.2,517Z" transform="translate(296.39 1050.88) rotate(180)" fill="#49b236"/><g clip-path="url(#clip-path)"><rect x="55.63" y="467.27" width="83.33" height="83.33" rx="20.2" transform="translate(194.6 1017.86) rotate(-180)" fill="#9cd43d"/></g><circle cx="64.05" cy="408.94" r="8.3"/><circle cx="130.66" cy="408.94" r="8.3"/><path d="M181.68,477.45s10.34,19.75,0,27.93-17.48-13.24-17.48-13.24l-5.53-12.24,13.54-19.38S179.27,471.7,181.68,477.45Z" fill="#49b236"/><path d="M105,417.27H85.6a5.61,5.61,0,0,0-5.11,8c2,4.31,6.21,8.77,14.82,8.77s12.78-4.46,14.81-8.77A5.61,5.61,0,0,0,105,417.27Z" fill="#fff"/><ellipse cx="43.79" cy="431.14" rx="14.65" ry="13.9" fill="#9cd43d"/><ellipse cx="146.82" cy="431.14" rx="14.65" ry="13.9" fill="#9cd43d"/><line x1="97.36" y1="508.93" x2="89.02" y2="517.26" fill="none" stroke="#49b236" stroke-linecap="round" stroke-miterlimit="10" stroke-width="1.87"/><line x1="89.02" y1="508.93" x2="97.36" y2="517.26" fill="none" stroke="#49b236" stroke-linecap="round" stroke-miterlimit="10" stroke-width="1.87"/></g><g id="Lines"><path d="M424.46,213.19V231s0,17.82,17.83,17.82H576s17.82,0,17.82-17.82V213.19" fill="none" stroke-miterlimit="10" stroke-width="8" stroke="url(#linear-gradient)"/><path d="M509.12,248.83V512.06s0,17.83-17.82,17.83H446.15" fill="none" stroke-miterlimit="10" stroke-width="8" stroke="url(#linear-gradient-2)"/></g><g id="Laptop_Dock" data-name="Laptop Dock"><g id="Heart_Dock-3" data-name="Heart Dock"><path d="M459.89,516.62V534h-299V517.21a9.89,9.89,0,0,1,9.86-10H450.61A9.35,9.35,0,0,1,459.89,516.62Z" fill="#54777f"/><path d="M158.34,507.24h12.41a9.89,9.89,0,0,0-9.86,10V534H149V516.62A9.36,9.36,0,0,1,158.34,507.24Z" fill="#3b5c63"/></g></g><g id="Laptop"><rect x="157.13" y="275.83" width="294.06" height="196.04" rx="20" fill="#01314d"/><rect x="148.21" y="471.82" width="311.9" height="17.91" rx="4.46" fill="#01314d"/><rect x="166.14" y="285" width="276.24" height="178.22" rx="12" opacity="0.25" fill="url(#linear-gradient-3)"/><path d="M282,471.87h44.55a0,0,0,0,1,0,0v3.91a5,5,0,0,1-5,5H287a5,5,0,0,1-5-5v-3.91a0,0,0,0,1,0,0Z" fill="#fff" opacity="0.05"/></g><g id="Code_4" data-name="Code 4"><g id="Code_3_copy" data-name="Code 3 copy"><rect x="206.14" y="313.49" width="196.04" height="127.23" rx="12.57" fill="#002838"/><rect x="223.77" y="347.06" width="159.76" height="8.13" rx="4.06" fill="#fff" opacity="0.1"/><rect x="223.77" y="382.56" width="35.38" height="8.13" rx="4.06" fill="#fff" opacity="0.25"/><rect x="312.6" y="382.56" width="70.88" height="8.13" rx="4.06" fill="#fff" opacity="0.25"/><rect x="277.02" y="382.56" width="17.98" height="8.13" rx="4.06" fill="#ffc53d"/><rect x="295.17" y="364.81" width="17.98" height="8.13" rx="4.06" fill="#9a63ff"/><rect x="241.28" y="418.06" width="17.87" height="8.13" rx="4.06" fill="#9a63ff"/><rect x="330.27" y="364.81" width="35.52" height="8.13" rx="4.06" fill="#fff" opacity="0.25"/><rect x="277.32" y="400.31" width="106.21" height="8.13" rx="4.06" fill="#fff" opacity="0.1"/><rect x="241.28" y="400.31" width="17.87" height="8.13" rx="4.06" fill="#afd157"/><rect x="277.02" y="418.06" width="106.5" height="8.13" rx="4.06" fill="#fff" opacity="0.1"/><rect x="241.58" y="364.81" width="35.74" height="8.13" rx="4.06" fill="#f95a5a"/><circle cx="223.1" cy="330.27" r="5.61" fill="#f95a5a"/><circle cx="239.89" cy="330.27" r="5.61" fill="#ffc53d"/><circle cx="256.68" cy="330.27" r="5.61" fill="#afd157"/></g></g><g id="Mug"><path d="M642.61,413.59h39.54a20,20,0,0,1,20,20v31.3a20,20,0,0,1-20,20h-39.4V472.94h34.19a13.33,13.33,0,0,0,13.33-13.34V438.92a13.33,13.33,0,0,0-13.33-13.33H642.61Z" fill="#ede5da"/><path d="M532.05,402.29l7.07,113.2a20,20,0,0,0,20,18.75h78.26a20,20,0,0,0,20-18.75l7.08-113.2a10,10,0,0,0-10-10.62H542A10,10,0,0,0,532.05,402.29Z" fill="#f4ece1"/><g clip-path="url(#clip-path-2)"><rect x="531.39" y="507.51" width="133.66" height="26.73" fill="#af9475"/></g><path d="M599,303.41a.51.51,0,0,0-.63-.78c-6.79,3.75-22.47,14-22.47,28.4,0,18.4,22.29,18.08,24.68,29.23,1.7,7.93-3.25,17.12-6.24,21.75a.51.51,0,0,0,.79.63c5.38-4.71,16.41-15.87,16.41-28.13C611.58,338.65,563.65,338.55,599,303.41Z" fill="#f2f2f2"/></g><g id="Logo_2" data-name="Logo 2"><path d="M579.27,133.73v-8.22L562,142.75l4.07,4.16Zm39.27-5.14c-1.28-6.45-6.1-11.28-6.65-11.81l-11.85-12-6.77,6.77-.48.48v8.23L600,113l6.73,6.86,1,1,.08.07s.45.44,1.07,1.19a18.08,18.08,0,0,1,3.92,7.58c1,4.85,1.45,10.5-3.92,17.38v8.5c.5-.43.82-.75.94-.86,4.8-4.73,7.7-9.5,8.85-14.6A26.84,26.84,0,0,0,618.54,128.59ZM582.67,154l-.19-.09-.08,0a10.59,10.59,0,0,1-1.5-.95c-.44-.32-1-.73-1.63-1.27-1-.81-2.19-1.9-3.68-3.35l-3.33-3.4L568.15,149l3.31,3.38,0,0c5.13,5,7.76,6.44,8.74,6.84a27.31,27.31,0,0,0,9.82,2.72,24.49,24.49,0,0,0,4.72-.09l.38,0v-5.89A20.31,20.31,0,0,1,582.67,154Z" fill="url(#linear-gradient-4)"/><polygon points="589.88 114.89 589.88 149.99 582.18 149.99 582.18 122.6 582.95 121.82 583.37 121.41 585.7 119.08 587.27 117.5 587.79 116.99 589.36 115.41 589.88 114.89" fill="#45d5d9" stroke="#45d5d9" stroke-miterlimit="10" stroke-width="0.2"/><path d="M606,122.74v35l-.1.07c-.36.23-.73.46-1.13.69l-.4.22c-.36.2-.73.4-1.12.59s-.73.36-1.11.53l-.64.27-.87.33-.71.25c-.47.17-1,.32-1.49.46l-.38.09V122.74Z" fill="#45d5d9" stroke="#45d5d9" stroke-miterlimit="10" stroke-width="0.2"/><rect x="589.88" y="131.99" width="8.18" height="7.95" fill="#45d5d9" stroke="#45d5d9" stroke-miterlimit="10" stroke-width="0.2"/></g><g id="Sparkles_2" data-name="Sparkles 2"><path d="M317.09,201.18l-1.8-3.13a.55.55,0,0,0-.18-.19l-3.13-1.8a.49.49,0,0,1,0-.86l3.13-1.82a.45.45,0,0,0,.18-.18l1.81-3.12a.5.5,0,0,1,.87,0l1.8,3.13a.55.55,0,0,0,.18.19l3.13,1.8a.49.49,0,0,1,0,.86l-3.12,1.8a.58.58,0,0,0-.19.19l-1.8,3.13A.51.51,0,0,1,317.09,201.18Z" fill="#ffc53d"/><path d="M44.61,275.13,42,270.54a.78.78,0,0,0-.27-.27l-4.59-2.64a.73.73,0,0,1,0-1.27l4.58-2.66a.65.65,0,0,0,.26-.26l2.66-4.58a.73.73,0,0,1,1.27,0l2.64,4.6a.78.78,0,0,0,.27.27l4.59,2.63a.73.73,0,0,1,0,1.27l-4.59,2.64a.87.87,0,0,0-.27.27l-2.64,4.59A.73.73,0,0,1,44.61,275.13Z" fill="#ffc53d" opacity="0.7"/><path d="M673.43,16.63l-2.64-4.58a.64.64,0,0,0-.27-.27l-4.59-2.65a.73.73,0,0,1,0-1.27l4.58-2.65a.75.75,0,0,0,.26-.27L673.43.36a.74.74,0,0,1,1.27,0L677.34,5a.64.64,0,0,0,.27.27l4.59,2.64a.73.73,0,0,1,0,1.27l-4.59,2.64a.7.7,0,0,0-.27.27l-2.64,4.58A.73.73,0,0,1,673.43,16.63Z" fill="#ffc53d" opacity="0.7"/><path d="M474.07,452.15l-2.5-4.35a.72.72,0,0,0-.26-.26L467,445a.69.69,0,0,1,0-1.2l4.34-2.52a.75.75,0,0,0,.25-.25l2.52-4.34a.69.69,0,0,1,1.2,0l2.5,4.36a.69.69,0,0,0,.26.25l4.34,2.5a.69.69,0,0,1,0,1.2l-4.34,2.5a.81.81,0,0,0-.26.26l-2.5,4.35A.69.69,0,0,1,474.07,452.15Z" fill="#1fbbc0"/><path d="M330.78,185.51l-2.5-4.34a.65.65,0,0,0-.26-.26l-4.35-2.5a.69.69,0,0,1,0-1.2l4.34-2.52a.75.75,0,0,0,.25-.25l2.52-4.34a.69.69,0,0,1,1.2,0l2.5,4.35a.65.65,0,0,0,.26.26l4.34,2.5a.69.69,0,0,1,0,1.2l-4.34,2.5a.72.72,0,0,0-.26.26l-2.5,4.34A.69.69,0,0,1,330.78,185.51Z" fill="#86e4db" opacity="0.7"/></g></g></g></svg>