<svg xmlns="http://www.w3.org/2000/svg" xmlns:xlink="http://www.w3.org/1999/xlink" viewBox="0 0 688.17 533.64"><defs><clipPath id="clip-path"><rect x="44.62" y="81.99" width="445.57" height="302.97" rx="10" fill="none"/></clipPath><clipPath id="clip-path-2"><path d="M204.85,145.72h0a224.91,224.91,0,0,1,123.61-.16l.36.1a104.6,104.6,0,0,1,73,75.31c8.48,34.14,17,144,17,176.51,0,0,4.21,67.37-151.83,67.37s-151.36-67.37-151.36-67.37,0-47,1.21-67.38c1.68-28.17,5.68-69.88,15.21-108.77a104.73,104.73,0,0,1,72.82-75.61Z" fill="none"/></clipPath><clipPath id="clip-path-3"><rect x="508.01" y="81.99" width="133.66" height="89.11" rx="10" fill="none"/></clipPath><clipPath id="clip-path-4"><path d="M615.46,146.91s12.77,44.57-44.12,41.24C523,185.33,536,146.9,536,146.9h0a19.92,19.92,0,0,1,4.41-32.07l0,0a14.1,14.1,0,0,1,26.42-9.57h14.62a14.1,14.1,0,0,1,26.93,5.87,14.59,14.59,0,0,1-.25,2.49h0a19.93,19.93,0,0,1,7.26,33.31Z" fill="none"/></clipPath><clipPath id="clip-path-5"><rect x="508.01" y="188.92" width="133.66" height="89.11" rx="10" fill="none"/></clipPath><clipPath id="clip-path-6"><rect x="508.01" y="295.85" width="133.66" height="89.11" rx="10" fill="none"/></clipPath></defs><g id="Layer_2" data-name="Layer 2"><g id="lllustration_1" data-name="lllustration 1"><g id="Zoom"><rect x="26.83" y="28.52" width="632.67" height="418.81" rx="20" fill="#f2f2fa"/><circle cx="53.56" cy="55.24" r="8.94" fill="#f95a5a"/><circle cx="80.29" cy="55.24" r="8.94" fill="#ffc53d"/><circle cx="107.02" cy="55.24" r="8.94" fill="#afd157"/><rect x="44.62" y="81.99" width="445.57" height="302.97" rx="10" fill="#9ee7e5"/><g clip-path="url(#clip-path)"><path d="M434.86,331.05s24.77,37.64,5.6,56.19-37.82-23.12-37.82-23.12l-13.59-23.5,23.32-41.7S428.85,320,434.86,331.05Z" fill="#efefef"/><path d="M345.88,430.53h51a0,0,0,0,1,0,0v8.83a25.48,25.48,0,0,1-25.48,25.48h0a25.48,25.48,0,0,1-25.48-25.48v-8.83A0,0,0,0,1,345.88,430.53Z" fill="#efefef"/><path d="M154.07,430.53h51.24a0,0,0,0,1,0,0v8.7a25.62,25.62,0,0,1-25.62,25.62h0a25.62,25.62,0,0,1-25.62-25.62v-8.7A0,0,0,0,1,154.07,430.53Z"/><path d="M352.44,182.55c14.07-10,41.32-26.69,60-26.69,6.34,0,11,1.92,14.14,5.86s4.09,7.69,3,11.95c-3.89,15.58-33.29,34.09-54.35,44Z" fill="#ffcaca"/><path d="M412.45,148.3v15.13h0c5.79,0,7.44,2,8.24,3,2.06,2.57,1.93,4,1.58,5.38-.63,2.56-4.53,12.07-27.81,26.68-5.92,3.72-11.75,6.91-16.55,9.37l-15.14-23.31c15.32-10.18,36.18-21.15,49.67-21.15V148.3m0,0c-29,0-70.21,32.42-70.21,32.42l30.22,46.53s86.78-37,60-70.27c-5-6.23-12.06-8.68-20-8.68Z"/><path d="M365.8,164.59a111.89,111.89,0,0,0,15.43-31.87,7.57,7.57,0,0,0-11.06-8.78c-10,5.95-23,14.74-32.18,24.7C321.07,167,365.8,164.59,365.8,164.59Z" fill="#ffc145"/><path d="M204.85,145.72h0a224.91,224.91,0,0,1,123.61-.16l.36.1a104.6,104.6,0,0,1,73,75.31c8.48,34.14,17,144,17,176.51,0,0,4.21,67.37-151.83,67.37s-151.36-67.37-151.36-67.37,0-47,1.21-67.38c1.68-28.17,5.68-69.88,15.21-108.77a104.73,104.73,0,0,1,72.82-75.61Z" fill="#fff"/><g clip-path="url(#clip-path-2)"><path d="M116.82,330.1s82.82-9.85,99.91,51.55,81,16.84,101.23,78.92-187.64,6.82-187.64,6.82L91.73,354.68Z"/><path d="M284.05,137.64s-.82,57.71,50.12,57.71,36.85,71.47,99.34,71.47S342.79,128,342.79,128Z"/><path d="M263.16,363.33h53.09a40.83,40.83,0,0,1,40.83,40.83V435a40.83,40.83,0,0,1-40.83,40.83H222.33a0,0,0,0,1,0,0v-71.7A40.83,40.83,0,0,1,263.16,363.33Z" fill="#ffcaca"/></g><circle cx="357.1" cy="245.88" r="16.79"/><circle cx="222.31" cy="245.88" r="16.79"/><path d="M345.88,289.83c0-20.29-17.54-43.95-56.24-43.95s-55.59,23.66-55.59,43.95,16.89,29.52,55.59,29.52S345.88,310.12,345.88,289.83Z" fill="#ffcaca"/><ellipse cx="278.49" cy="280.73" rx="5.77" ry="7.84"/><ellipse cx="312.18" cy="280.73" rx="5.77" ry="7.84"/><path d="M172.69,170.16s-14-18.35-19.81-37.44A7.58,7.58,0,0,1,164,123.94c10,5.95,18.11,9.87,27.3,19.83C208.16,162.12,172.69,170.16,172.69,170.16Z" fill="#ffc145"/><path d="M150.72,203.06A17,17,0,0,1,141,200c-22.17-15.45-35.47-30.43-36.47-41.1-.38-4,1-7.42,4.27-10.79,3-3.09,6.93-4.59,11.93-4.59,11.19,0,27.57,7.62,46.13,21.46a17.08,17.08,0,0,1,3.11,24.35l-5.81,7.29a17,17,0,0,1-13.39,6.45Z" fill="#ffcaca"/><path d="M120.69,151.07c9.43,0,24.6,7.27,41.61,20A9.53,9.53,0,0,1,164,184.61l-5.82,7.29a9.53,9.53,0,0,1-12.92,1.88c-30.47-21.22-33.06-33.37-33.27-35.6-.09-.94-.22-2.36,2.15-4.79,1.13-1.15,2.78-2.32,6.53-2.32m0-15.13c-6.58,0-12.56,2-17.33,6.87-20.12,20.55,10.9,47.79,33.28,63.38A24.65,24.65,0,0,0,170,201.32l5.81-7.29a24.64,24.64,0,0,0-4.5-35.12c-14.46-10.79-34.39-23-50.65-23Z" fill="#fff"/><path d="M97.88,331.9S74.25,370.27,94,388.23,131.08,364,131.08,364l19.54-34.6L119.4,299.11S103.55,320.66,97.88,331.9Z" fill="#fff"/><line x1="289.56" y1="414.32" x2="306.4" y2="431.17" fill="none" stroke="#ff8d8d" stroke-linecap="round" stroke-miterlimit="10" stroke-width="3.78"/><line x1="306.4" y1="414.32" x2="289.56" y2="431.17" fill="none" stroke="#ff8d8d" stroke-linecap="round" stroke-miterlimit="10" stroke-width="3.78"/><rect x="175.41" y="262.67" width="41.62" height="33.69" rx="16.84" fill="#ffd2d2"/><rect x="362.04" y="262.67" width="41.62" height="33.69" rx="16.84" fill="#ffd2d2"/></g><rect x="508.01" y="81.99" width="133.66" height="89.11" rx="10" fill="#afd157"/><rect x="508.01" y="188.92" width="133.66" height="89.11" rx="10" fill="#ffc5ab"/><rect x="508.01" y="295.85" width="133.66" height="89.11" rx="10" fill="#ffc53d"/><g clip-path="url(#clip-path-3)"><path d="M550.13,178.5h0a7.24,7.24,0,0,1,7.24,7.24v2.42a0,0,0,0,1,0,0H542.9a0,0,0,0,1,0,0v-2.42A7.24,7.24,0,0,1,550.13,178.5Z" transform="translate(1100.27 366.65) rotate(180)" fill="#4b9b3a"/><path d="M530.18,156.17s-6.39,11-.72,15.87S539.73,165,539.73,165l3.46-6.8L536,146.81A95.22,95.22,0,0,0,530.18,156.17Z" fill="#4b9b3a"/><path d="M615.46,146.91s12.77,44.57-44.12,41.24C523,185.33,536,146.9,536,146.9h0a19.92,19.92,0,0,1,4.41-32.07l0,0a14.1,14.1,0,0,1,26.42-9.57h14.62a14.1,14.1,0,0,1,26.93,5.87,14.59,14.59,0,0,1-.25,2.49h0a19.93,19.93,0,0,1,7.26,33.31Z" fill="#49b236"/><path d="M601.73,178.5h0a6.77,6.77,0,0,1,6.77,6.77v2.88a0,0,0,0,1,0,0H595a0,0,0,0,1,0,0v-2.88A6.77,6.77,0,0,1,601.73,178.5Z" transform="translate(1203.46 366.65) rotate(-180)" fill="#49b236"/><g clip-path="url(#clip-path-4)"><rect x="549.1" y="150.25" width="47.38" height="47.38" rx="11.48" transform="translate(1145.58 347.88) rotate(-180)" fill="#9cd43d"/></g><circle cx="553.88" cy="117.08" r="4.72"/><circle cx="591.76" cy="117.08" r="4.72"/><path d="M620.66,156.65s5.63,11.36-.36,15.88-9.77-7.75-9.77-7.75l-3-7,7.94-10.85A96.42,96.42,0,0,1,620.66,156.65Z" fill="#49b236"/><path d="M577.18,121.82h-11a3.19,3.19,0,0,0-2.9,4.53c1.16,2.45,3.53,5,8.43,5s7.27-2.53,8.42-5A3.19,3.19,0,0,0,577.18,121.82Z" fill="#fff"/><ellipse cx="542.37" cy="129.71" rx="8.33" ry="7.9" fill="#9cd43d"/><ellipse cx="600.95" cy="129.71" rx="8.33" ry="7.9" fill="#9cd43d"/><line x1="572.82" y1="173.94" x2="568.08" y2="178.68" fill="none" stroke="#49b236" stroke-linecap="round" stroke-miterlimit="10" stroke-width="1.06"/><line x1="568.08" y1="173.94" x2="572.82" y2="178.68" fill="none" stroke="#49b236" stroke-linecap="round" stroke-miterlimit="10" stroke-width="1.06"/></g><g clip-path="url(#clip-path-5)"><path d="M527.58,266.7s-7,10.59-1.57,15.8,10.64-6.5,10.64-6.5l3.82-6.61-6.56-11.73A94.52,94.52,0,0,0,527.58,266.7Z" fill="#efefef"/><path d="M603.75,294.86h0a7.28,7.28,0,0,1,7.28,7.28v2.19a0,0,0,0,1,0,0H596.47a0,0,0,0,1,0,0v-2.19a7.28,7.28,0,0,1,7.28-7.28Z" transform="translate(1207.51 599.19) rotate(180)" fill="#fff"/><path d="M544.07,294.86h0a7.11,7.11,0,0,1,7.11,7.11v2.36a0,0,0,0,1,0,0H537a0,0,0,0,1,0,0V302A7.11,7.11,0,0,1,544.07,294.86Z" transform="translate(1088.13 599.19) rotate(-180)" fill="#efefef"/><path d="M592.28,214.57h0a63.22,63.22,0,0,0-34.77,0l-.1,0a29.41,29.41,0,0,0-20.53,21.18c-2.38,9.61-4.78,40.49-4.78,49.65,0,0-1.19,19,42.71,19s42.57-19,42.57-19,0-13.21-.34-18.95a179.72,179.72,0,0,0-4.27-30.59,29.41,29.41,0,0,0-20.49-21.27Z" fill="#f2f2f2"/><path d="M592.28,214.57h0a63.22,63.22,0,0,0-34.77,0l-.1,0a29.41,29.41,0,0,0-20.53,21.18c-2.38,9.61-4.78,40.49-4.78,49.65,0,0-1.19,19,42.71,19s42.57-19,42.57-19,0-13.21-.34-18.95a179.72,179.72,0,0,0-4.27-30.59,29.41,29.41,0,0,0-20.49-21.27Z" fill="#fff"/><rect x="586.53" y="249.59" width="14.26" height="9.49" rx="4.75" transform="translate(1187.33 508.67) rotate(180)" fill="#ffd2d2"/><rect x="536.26" y="249.59" width="14.26" height="9.49" rx="4.75" transform="translate(1086.77 508.67) rotate(180)" fill="#ffd2d2"/><circle cx="549.45" cy="242.74" r="4.72"/><circle cx="587.37" cy="242.74" r="4.72"/><path d="M595.13,217.06a.64.64,0,0,1-.2,0l-9.51-2.36a1.08,1.08,0,0,1-.79-1.25c1.87-8.49,5.59-17.56,10.42-17.56a4.44,4.44,0,0,1,.62,0,3.61,3.61,0,0,1,2.85,1.77c1.8,3,.93,10-2.34,18.69A1.15,1.15,0,0,1,595.13,217.06Z" fill="#ffd2d2"/><path d="M595.05,193.73V198l.32,0c1,.14,1.18.51,1.32.75,1.13,1.91.87,7.56-2.17,16l-7.58-1.88c2.31-9.77,5.78-14.87,8.11-14.87v-4.26m0,0c-7.4,0-11.15,13.14-12.49,19.23a3.18,3.18,0,0,0,2.35,3.77l9.51,2.37a2.82,2.82,0,0,0,.71.09,3.29,3.29,0,0,0,3-2.07c2.39-6.34,7.25-22-2.2-23.32a7.4,7.4,0,0,0-.92-.07Z" fill="#fff"/><path d="M554.08,217.75a1.07,1.07,0,0,1-1-.7c-3.26-8.67-4.14-15.66-2.34-18.7a3.64,3.64,0,0,1,2.86-1.76,4.32,4.32,0,0,1,.62-.05c4.83,0,8.54,9.07,10.41,17.56a1.07,1.07,0,0,1-.79,1.25l-9.51,2.36a.75.75,0,0,1-.26,0Z" fill="#ffd2d2"/><path d="M554.23,198.67c2.32,0,5.8,5.1,8.1,14.87l-7.58,1.88c-3-8.42-3.3-14.07-2.17-16,.14-.24.36-.61,1.33-.75l.32,0m0-4.26a7.41,7.41,0,0,0-.93.07c-9.45,1.35-4.59,17-2.2,23.32a3.19,3.19,0,0,0,3,2.07,3.46,3.46,0,0,0,.78-.09l9.51-2.37a3.18,3.18,0,0,0,2.34-3.77c-1.33-6.09-5.08-19.23-12.48-19.23Z" fill="#fff"/><rect x="544.73" y="266.43" width="47.36" height="33.77" rx="16.88" transform="translate(1136.83 566.63) rotate(180)" fill="#f4f4f4"/><path d="M622.93,269s7,10.6,1.55,15.8-10.63-6.52-10.63-6.52L610,271.62l6.58-11.71A94.21,94.21,0,0,1,622.93,269Z" fill="#fff"/><line x1="568.45" y1="290.12" x2="563.72" y2="294.86" fill="none" stroke="#ffd2d2" stroke-linecap="round" stroke-miterlimit="10" stroke-width="1.06"/><line x1="563.72" y1="290.12" x2="568.45" y2="294.86" fill="none" stroke="#ffd2d2" stroke-linecap="round" stroke-miterlimit="10" stroke-width="1.06"/><polyline points="571.47 245.18 566.55 247.69 561.22 245.04" fill="none" stroke="#ffd2d2" stroke-linecap="round" stroke-miterlimit="10" stroke-width="1.6"/><path d="M566.55,247.68V251a3,3,0,0,0,3.17,3,3.37,3.37,0,0,0,2.3-.78" fill="none" stroke="#ffd2d2" stroke-linecap="round" stroke-miterlimit="10" stroke-width="1.6"/><path d="M566.55,251a3.14,3.14,0,0,1-3.39,3,3.31,3.31,0,0,1-2.33-.78" fill="none" stroke="#ffd2d2" stroke-linecap="round" stroke-miterlimit="10" stroke-width="1.6"/></g><g clip-path="url(#clip-path-6)"><path d="M527.58,367.56s-7,10.59-1.57,15.8,10.64-6.5,10.64-6.5l3.82-6.61-6.56-11.73A95.9,95.9,0,0,0,527.58,367.56Z" fill="#efd565"/><rect x="588.57" y="399.72" width="25.32" height="5.48" rx="2.74" transform="translate(1202.46 804.91) rotate(180)" fill="#ffbb4d"/><rect x="532.21" y="399.72" width="24.75" height="5.48" rx="2.74" transform="translate(1089.18 804.91) rotate(-180)" fill="#ffbb4d"/><path d="M592.28,315.43h0a63.31,63.31,0,0,0-34.77-.05l-.1,0a29.43,29.43,0,0,0-20.53,21.19c-2.38,9.6-4.78,40.49-4.78,49.64,0,0-1.19,19,42.71,19s42.57-19,42.57-19,0-13.21-.34-18.95a179.72,179.72,0,0,0-4.27-30.59,29.41,29.41,0,0,0-20.49-21.27Z" fill="#f2f2f2"/><path d="M592.28,315.43h0a63.31,63.31,0,0,0-34.77-.05l-.1,0a29.43,29.43,0,0,0-20.53,21.19c-2.38,9.6-4.78,40.49-4.78,49.64,0,0-1.19,19,42.71,19s42.57-19,42.57-19,0-13.21-.34-18.95a179.72,179.72,0,0,0-4.27-30.59,29.41,29.41,0,0,0-20.49-21.27Z" fill="#ffe36c"/><circle cx="549.45" cy="343.6" r="4.72"/><circle cx="587.37" cy="343.6" r="4.72"/><path d="M625.12,369.12s9.38-8.51,5.46-14.91-11.92,3.65-11.92,3.65l-5.35,5.45,3.43,13A94.26,94.26,0,0,0,625.12,369.12Z" fill="#ffe36c"/><line x1="568.45" y1="390.98" x2="563.72" y2="395.72" fill="none" stroke="#ffbb4d" stroke-linecap="round" stroke-miterlimit="10" stroke-width="1.06"/><line x1="563.72" y1="390.98" x2="568.45" y2="395.72" fill="none" stroke="#ffbb4d" stroke-linecap="round" stroke-miterlimit="10" stroke-width="1.06"/><circle cx="593.91" cy="356.87" r="7.32" fill="#ffa052"/><circle cx="543.24" cy="356.87" r="7.32" fill="#ffa052"/><path d="M561.31,356.75H573a6.06,6.06,0,0,0,6-6h0c0-3.33-8.57-5.54-11.89-5.54h0c-3.33,0-11.9,2.21-11.9,5.54h0A6.06,6.06,0,0,0,561.31,356.75Z" fill="#ffbb4d"/><path d="M576.25,313s-.46-6.61-4.55-10.94a.75.75,0,0,0-1.28.43,27.64,27.64,0,0,1-2.81,8.87,5.74,5.74,0,0,1-4,2.59" fill="#ffe36c"/><path d="M568.74,313.28a27.71,27.71,0,0,0,7.92-8.69.75.75,0,0,1,1.35.08,21,21,0,0,1,.82,5.26,3.67,3.67,0,0,0,3.15,3.44" fill="#ffe36c"/></g><path d="M44.66,358.23h79.08a10,10,0,0,1,10,10V385a0,0,0,0,1,0,0H54.66a10,10,0,0,1-10-10V358.23A0,0,0,0,1,44.66,358.23Z" fill="#3db2b2"/><text transform="translate(67.92 378.75)" font-size="21" fill="#fff" font-family="ProximaNova-Extrabld, Proxima Nova">Cow</text><path d="M508,157.62h43.5a10,10,0,0,1,10,10v3.47a0,0,0,0,1,0,0H518a10,10,0,0,1-10-10v-3.47a0,0,0,0,1,0,0Z" fill="#3db2b2"/><text transform="translate(521.77 166.58)" font-size="8" fill="#fff" font-family="ProximaNova-Extrabld, Proxima Nova">Froggy</text><path d="M508,264.56h43.5a10,10,0,0,1,10,10V278a0,0,0,0,1,0,0H518a10,10,0,0,1-10-10v-3.47a0,0,0,0,1,0,0Z" fill="#3db2b2"/><text transform="translate(522.79 273.51)" font-size="8" fill="#fff" font-family="ProximaNova-Extrabld, Proxima Nova">Bunny</text><path d="M508,371.49h43.5a10,10,0,0,1,10,10V385a0,0,0,0,1,0,0H518a10,10,0,0,1-10-10v-3.47A0,0,0,0,1,508,371.49Z" fill="#3db2b2"/><text transform="translate(518.44 380.45)" font-size="8" fill="#fff" font-family="ProximaNova-Extrabld, Proxima Nova">Duckling</text></g><g id="Clock"><rect x="410.2" y="411.25" width="196" height="62.33" rx="14.62" fill="#01314d"/><g id="Numbers"><polygon points="445.92 428.53 434.04 428.53 432.05 426.54 434.04 424.54 445.92 424.54 447.91 426.54 445.92 428.53" fill="#32d1ea" stroke="#01314d" stroke-miterlimit="10" stroke-width="0.44"/><polygon points="469.68 428.53 457.81 428.53 455.81 426.54 457.81 424.54 469.68 424.54 471.68 426.54 469.68 428.53" fill="#32d1ea" stroke="#01314d" stroke-miterlimit="10" stroke-width="0.44"/><polygon points="501.32 428.53 489.45 428.53 487.45 426.54 489.45 424.54 501.32 424.54 503.32 426.54 501.32 428.53" fill="#32d1ea" stroke="#01314d" stroke-miterlimit="10" stroke-width="0.44"/><polygon points="501.32 460.25 489.45 460.25 487.45 458.25 489.45 456.26 501.32 456.26 503.32 458.25 501.32 460.25" fill="#32d1ea" stroke="#01314d" stroke-miterlimit="10" stroke-width="0.44"/><polygon points="469.68 460.25 457.81 460.25 455.81 458.25 457.81 456.26 469.68 456.26 471.68 458.25 469.68 460.25" fill="#32d1ea" stroke="#01314d" stroke-miterlimit="10" stroke-width="0.44"/><polygon points="445.92 444.38 434.04 444.38 432.05 442.39 434.04 440.39 445.92 440.39 447.91 442.39 445.92 444.38" fill="#32d1ea" stroke="#01314d" stroke-miterlimit="10" stroke-width="0.44"/><polygon points="469.68 444.38 457.81 444.38 455.81 442.39 457.81 440.39 469.68 440.39 471.68 442.39 469.68 444.38" fill="#32d1ea" stroke="#01314d" stroke-miterlimit="10" stroke-width="0.44"/><polygon points="445.92 460.24 434.04 460.24 432.05 458.24 434.04 456.24 445.92 456.24 447.91 458.24 445.92 460.24" fill="#32d1ea" stroke="#01314d" stroke-miterlimit="10" stroke-width="0.44"/><polygon points="445.92 440.39 445.92 428.52 447.91 426.52 449.91 428.52 449.91 440.39 447.91 442.39 445.92 440.39" fill="#32d1ea" stroke="#01314d" stroke-miterlimit="10" stroke-width="0.44"/><polygon points="453.83 440.39 453.83 428.52 455.83 426.52 457.82 428.52 457.82 440.39 455.83 442.39 453.83 440.39" fill="#32d1ea" stroke="#01314d" stroke-miterlimit="10" stroke-width="0.44"/><polygon points="485.46 440.39 485.46 428.52 487.45 426.52 489.45 428.52 489.45 440.39 487.45 442.39 485.46 440.39" fill="#32d1ea" stroke="#01314d" stroke-miterlimit="10" stroke-width="0.44"/><polygon points="501.32 440.39 501.32 428.52 503.32 426.52 505.32 428.52 505.32 440.39 503.32 442.39 501.32 440.39" fill="#32d1ea" stroke="#01314d" stroke-miterlimit="10" stroke-width="0.44"/><polygon points="485.46 456.26 485.46 444.38 487.45 442.39 489.45 444.38 489.45 456.26 487.45 458.25 485.46 456.26" fill="#32d1ea" stroke="#01314d" stroke-miterlimit="10" stroke-width="0.44"/><polygon points="501.32 456.26 501.32 444.38 503.32 442.39 505.32 444.38 505.32 456.26 503.32 458.25 501.32 456.26" fill="#32d1ea" stroke="#01314d" stroke-miterlimit="10" stroke-width="0.44"/><polygon points="525.05 428.53 513.17 428.53 511.18 426.54 513.17 424.54 525.05 424.54 527.04 426.54 525.05 428.53" fill="#32d1ea" stroke="#01314d" stroke-miterlimit="10" stroke-width="0.44"/><polygon points="525.05 460.25 513.17 460.25 511.18 458.25 513.17 456.26 525.05 456.26 527.04 458.25 525.05 460.25" fill="#32d1ea" stroke="#01314d" stroke-miterlimit="10" stroke-width="0.44"/><polygon points="509.18 440.39 509.18 428.52 511.18 426.52 513.17 428.52 513.17 440.39 511.18 442.39 509.18 440.39" fill="#32d1ea" stroke="#01314d" stroke-miterlimit="10" stroke-width="0.44"/><polygon points="525.05 440.39 525.05 428.52 527.04 426.52 529.04 428.52 529.04 440.39 527.04 442.39 525.05 440.39" fill="#32d1ea" stroke="#01314d" stroke-miterlimit="10" stroke-width="0.44"/><polygon points="509.18 456.26 509.18 444.38 511.18 442.39 513.17 444.38 513.17 456.26 511.18 458.25 509.18 456.26" fill="#32d1ea" stroke="#01314d" stroke-miterlimit="10" stroke-width="0.44"/><polygon points="525.05 456.26 525.05 444.38 527.04 442.39 529.04 444.38 529.04 456.26 527.04 458.25 525.05 456.26" fill="#32d1ea" stroke="#01314d" stroke-miterlimit="10" stroke-width="0.44"/><polygon points="556.68 428.53 544.81 428.53 542.81 426.54 544.81 424.54 556.68 424.54 558.68 426.54 556.68 428.53" fill="#32d1ea" stroke="#01314d" stroke-miterlimit="10" stroke-width="0.44"/><polygon points="556.68 460.25 544.81 460.25 542.81 458.25 544.81 456.26 556.68 456.26 558.68 458.25 556.68 460.25" fill="#32d1ea" stroke="#01314d" stroke-miterlimit="10" stroke-width="0.44"/><polygon points="540.81 440.39 540.81 428.52 542.81 426.52 544.81 428.52 544.81 440.39 542.81 442.39 540.81 440.39" fill="#32d1ea" stroke="#01314d" stroke-miterlimit="10" stroke-width="0.44"/><polygon points="556.68 440.39 556.68 428.52 558.68 426.52 560.67 428.52 560.67 440.39 558.68 442.39 556.68 440.39" fill="#32d1ea" stroke="#01314d" stroke-miterlimit="10" stroke-width="0.44"/><polygon points="540.81 456.26 540.81 444.38 542.81 442.39 544.81 444.38 544.81 456.26 542.81 458.25 540.81 456.26" fill="#32d1ea" stroke="#01314d" stroke-miterlimit="10" stroke-width="0.44"/><polygon points="556.68 456.26 556.68 444.38 558.68 442.39 560.67 444.38 560.67 456.26 558.68 458.25 556.68 456.26" fill="#32d1ea" stroke="#01314d" stroke-miterlimit="10" stroke-width="0.44"/><polygon points="580.4 428.53 568.53 428.53 566.53 426.54 568.53 424.54 580.4 424.54 582.4 426.54 580.4 428.53" fill="#32d1ea" stroke="#01314d" stroke-miterlimit="10" stroke-width="0.44"/><polygon points="580.4 460.25 568.53 460.25 566.53 458.25 568.53 456.26 580.4 456.26 582.4 458.25 580.4 460.25" fill="#32d1ea" stroke="#01314d" stroke-miterlimit="10" stroke-width="0.44"/><polygon points="564.54 440.39 564.54 428.52 566.53 426.52 568.53 428.52 568.53 440.39 566.53 442.39 564.54 440.39" fill="#32d1ea" stroke="#01314d" stroke-miterlimit="10" stroke-width="0.44"/><polygon points="580.4 440.39 580.4 428.52 582.4 426.52 584.4 428.52 584.4 440.39 582.4 442.39 580.4 440.39" fill="#32d1ea" stroke="#01314d" stroke-miterlimit="10" stroke-width="0.44"/><polygon points="564.54 456.26 564.54 444.38 566.53 442.39 568.53 444.38 568.53 456.26 566.53 458.25 564.54 456.26" fill="#32d1ea" stroke="#01314d" stroke-miterlimit="10" stroke-width="0.44"/><polygon points="580.4 456.26 580.4 444.38 582.4 442.39 584.4 444.38 584.4 456.26 582.4 458.25 580.4 456.26" fill="#32d1ea" stroke="#01314d" stroke-miterlimit="10" stroke-width="0.44"/><polygon points="453.83 456.21 453.83 444.33 455.83 442.34 457.82 444.33 457.82 456.21 455.83 458.2 453.83 456.21" fill="#32d1ea" stroke="#01314d" stroke-miterlimit="10" stroke-width="0.44"/><polygon points="469.68 456.21 469.68 444.33 471.68 442.34 473.67 444.33 473.67 456.21 471.68 458.2 469.68 456.21" fill="#32d1ea" stroke="#01314d" stroke-miterlimit="10" stroke-width="0.44"/><polygon points="445.92 456.26 445.92 444.38 447.91 442.39 449.91 444.38 449.91 456.26 447.91 458.25 445.92 456.26" fill="#32d1ea" stroke="#01314d" stroke-miterlimit="10" stroke-width="0.44"/><circle cx="479.52" cy="434.45" r="1.98" fill="#32d1ea" stroke="#01314d" stroke-miterlimit="10" stroke-width="0.44"/><circle cx="479.52" cy="450.32" r="1.98" fill="#32d1ea" stroke="#01314d" stroke-miterlimit="10" stroke-width="0.44"/><circle cx="534.88" cy="434.45" r="1.98" fill="#32d1ea" stroke="#01314d" stroke-miterlimit="10" stroke-width="0.44"/><circle cx="534.88" cy="450.32" r="1.98" fill="#32d1ea" stroke="#01314d" stroke-miterlimit="10" stroke-width="0.44"/></g></g><g id="Sparkles"><path d="M663.71,11.35l-1.8-3.13a.45.45,0,0,0-.18-.18l-3.14-1.81a.5.5,0,0,1,0-.86l3.13-1.82a.52.52,0,0,0,.18-.18L663.71.25a.51.51,0,0,1,.87,0l1.8,3.14a.45.45,0,0,0,.18.18l3.13,1.8a.49.49,0,0,1,0,.86L666.56,8a.45.45,0,0,0-.18.18l-1.8,3.13A.51.51,0,0,1,663.71,11.35Z" fill="#ffc53d"/><path d="M348.57,498.18l-2.64-4.59a.7.7,0,0,0-.27-.27l-4.59-2.64a.74.74,0,0,1,0-1.27l4.58-2.66a.75.75,0,0,0,.27-.26l2.65-4.58a.74.74,0,0,1,1.27,0l2.64,4.6a.78.78,0,0,0,.27.27l4.59,2.63a.73.73,0,0,1,0,1.27l-4.59,2.64a.87.87,0,0,0-.27.27l-2.64,4.59A.73.73,0,0,1,348.57,498.18Z" fill="#ffc53d" opacity="0.7"/><path d="M679.52,28.18,677,23.83a.72.72,0,0,0-.26-.26l-4.35-2.5a.69.69,0,0,1,0-1.2l4.34-2.52a.75.75,0,0,0,.25-.25l2.52-4.34a.69.69,0,0,1,1.2,0l2.5,4.36a.75.75,0,0,0,.25.25l4.35,2.5a.69.69,0,0,1,0,1.2l-4.34,2.51a.63.63,0,0,0-.26.25l-2.5,4.35A.69.69,0,0,1,679.52,28.18Z" fill="#9a63ff" opacity="0.7"/></g><g id="Code_3" data-name="Code 3"><rect y="331.05" width="312.16" height="202.59" rx="20.01" fill="#002838" opacity="0.8"/><rect x="28.08" y="384.51" width="254.39" height="12.94" rx="6.47" fill="#fff" opacity="0.1"/><rect x="28.08" y="469.31" width="56.34" height="12.94" rx="6.47" fill="#fff" opacity="0.25"/><rect x="169.52" y="469.31" width="112.87" height="12.94" rx="6.47" fill="#fff" opacity="0.25"/><rect x="112.87" y="469.31" width="28.64" height="12.94" rx="6.47" fill="#f95a5a"/><rect x="55.96" y="497.58" width="28.46" height="12.94" rx="6.47" fill="#afd157"/><rect x="141.82" y="412.78" width="112.4" height="12.94" rx="6.47" fill="#fff" opacity="0.1"/><rect x="113.35" y="441.05" width="169.12" height="12.94" rx="6.47" fill="#fff" opacity="0.25"/><rect x="55.96" y="441.05" width="28.46" height="12.94" rx="6.47" fill="#ffc53d"/><rect x="112.87" y="497.58" width="169.59" height="12.94" rx="6.47" fill="#fff" opacity="0.1"/><rect x="56.44" y="412.78" width="56.91" height="12.94" rx="6.47" fill="#9a63ff"/><circle cx="27.02" cy="357.78" r="8.94" fill="#f95a5a"/><circle cx="53.75" cy="357.78" r="8.94" fill="#ffc53d"/><circle cx="80.48" cy="357.78" r="8.94" fill="#afd157"/></g></g></g></svg>